<svg xml:space="preserve" style="max-height: 500px" viewBox="196.0841593069307 168.66306352 444.1654455445545 260.73264" y="0px" x="0px" xmlns:xlink="http://www.w3.org/1999/xlink" xmlns="http://www.w3.org/2000/svg" id="Layer_1" version="1.1" width="444.1654455445545" height="260.73264">
<style type="text/css">
	.st0{fill:#162481;}
</style>
<g>
	<g>
		<path d="M241.63,312.54h12.44v28.58h-46.13v-70.2h13.74v57.96h19.96V312.54z" class="st0"/>
		<path d="M303.63,325.58h-20.96l-4.81,15.54h-13.74l22.66-70.2h13.74l22.56,70.2h-14.44L303.63,325.58z M285.88,314.55&#10;&#9;&#9;&#9;h15.04l-7.12-23.46h-0.9L285.88,314.55z" class="st0"/>
		<path d="M391.01,318.16h11.03v9.93c0.2,0.07,0.4,0.14,0.6,0.2c1.54,0.67,3.22,1.22,5.06,1.65&#10;&#9;&#9;&#9;c1.84,0.44,3.79,0.65,5.87,0.65c3.74,0,6.65-0.75,8.72-2.26c2.07-1.5,3.11-3.53,3.11-6.07c0-2.27-0.85-4.11-2.56-5.52&#10;&#9;&#9;&#9;c-1.7-1.4-3.81-2.64-6.32-3.71c-2.51-1.07-5.25-2.14-8.22-3.21c-2.97-1.07-5.72-2.42-8.22-4.06c-2.51-1.64-4.62-3.69-6.32-6.17&#10;&#9;&#9;&#9;c-1.71-2.47-2.56-5.68-2.56-9.63c0-3.01,0.59-5.77,1.76-8.27c1.17-2.51,2.81-4.66,4.91-6.47c2.11-1.8,4.63-3.21,7.57-4.21&#10;&#9;&#9;&#9;c2.94-1,6.22-1.5,9.83-1.5c4.07,0,8.09,0.37,12.03,1.1c3.95,0.74,7.08,1.74,9.43,3.01v20.36h-11.03v-11.13&#10;&#9;&#9;&#9;c-0.2,0-0.4-0.03-0.61-0.1c-1.47-0.4-3.06-0.72-4.76-0.95c-1.71-0.23-3.39-0.35-5.06-0.35c-3.21,0-5.74,0.64-7.57,1.91&#10;&#9;&#9;&#9;c-1.84,1.27-2.76,2.98-2.76,5.11c0,2.21,0.86,4.01,2.56,5.42c1.71,1.4,3.81,2.67,6.32,3.81c2.51,1.14,5.25,2.27,8.22,3.41&#10;&#9;&#9;&#9;c2.97,1.14,5.72,2.52,8.22,4.16c2.51,1.64,4.62,3.7,6.32,6.17c1.71,2.48,2.56,5.58,2.56,9.33c0,3.61-0.67,6.77-2.01,9.48&#10;&#9;&#9;&#9;c-1.34,2.71-3.21,4.98-5.62,6.82c-2.4,1.84-5.25,3.21-8.53,4.11c-3.28,0.9-6.82,1.35-10.63,1.35c-2.54,0-4.9-0.2-7.07-0.6&#10;&#9;&#9;&#9;c-2.17-0.4-4.18-0.9-6.02-1.5c-1.84-0.6-3.46-1.24-4.86-1.91c-1.4-0.67-2.54-1.23-3.41-1.7V318.16z" class="st0"/>
		<path d="M289.95,390.81h-7.12v29.28h-13.74v-70.2h13.74v28.68h7.12l16.05-28.68h15.64l-19.76,33.89l22.26,36.3H307.2&#10;&#9;&#9;&#9;L289.95,390.81z" class="st0"/>
		<path d="M392.2,349.89c0.6-0.07,1.66-0.17,3.16-0.3c1.5-0.13,3.21-0.25,5.11-0.35c1.91-0.1,3.88-0.18,5.92-0.25&#10;&#9;&#9;&#9;c2.04-0.06,3.86-0.1,5.46-0.1c6.22,0,11.37,0.9,15.44,2.71c4.08,1.81,7.3,4.3,9.68,7.47c2.37,3.18,4.03,6.92,4.96,11.23&#10;&#9;&#9;&#9;c0.94,4.31,1.4,9.01,1.4,14.09c0,4.61-0.47,9.12-1.4,13.54c-0.94,4.41-2.62,8.34-5.06,11.78c-2.44,3.44-5.82,6.22-10.13,8.32&#10;&#9;&#9;&#9;c-4.31,2.11-9.85,3.16-16.6,3.16c-1.07,0-2.44-0.03-4.11-0.1c-1.67-0.07-3.38-0.15-5.11-0.25c-1.74-0.1-3.41-0.2-5.01-0.3&#10;&#9;&#9;&#9;c-1.6-0.1-2.84-0.22-3.71-0.35V349.89z M412.35,361.12c-1.27,0-2.51,0.05-3.71,0.15s-2.11,0.19-2.71,0.25v47.03&#10;&#9;&#9;&#9;c0.27,0.07,0.67,0.12,1.2,0.15c0.53,0.03,1.09,0.07,1.66,0.1c0.57,0.04,1.12,0.07,1.65,0.1c0.53,0.03,0.97,0.05,1.3,0.05&#10;&#9;&#9;&#9;c3.88,0,6.97-0.72,9.28-2.16c2.31-1.44,4.03-3.32,5.17-5.67c1.14-2.34,1.87-4.98,2.21-7.92c0.33-2.94,0.5-5.88,0.5-8.82&#10;&#9;&#9;&#9;c0-2.54-0.15-5.18-0.45-7.92c-0.3-2.74-1-5.25-2.11-7.52c-1.1-2.27-2.76-4.15-4.96-5.62&#10;&#9;&#9;&#9;C419.17,361.86,416.16,361.12,412.35,361.12z" class="st0"/>
		<path d="M454.57,397.12h11.03v9.93c0.2,0.07,0.4,0.14,0.6,0.2c1.54,0.67,3.22,1.22,5.06,1.65&#10;&#9;&#9;&#9;c1.84,0.44,3.8,0.65,5.87,0.65c3.74,0,6.65-0.75,8.73-2.26c2.07-1.5,3.11-3.53,3.11-6.07c0-2.27-0.85-4.11-2.55-5.52&#10;&#9;&#9;&#9;c-1.71-1.4-3.81-2.64-6.32-3.71c-2.51-1.07-5.25-2.14-8.22-3.21c-2.98-1.07-5.72-2.42-8.23-4.06c-2.51-1.64-4.61-3.69-6.32-6.17&#10;&#9;&#9;&#9;c-1.71-2.47-2.56-5.68-2.56-9.63c0-3.01,0.59-5.77,1.76-8.27c1.17-2.51,2.81-4.66,4.92-6.47c2.1-1.8,4.63-3.21,7.57-4.21&#10;&#9;&#9;&#9;c2.94-1,6.22-1.5,9.83-1.5c4.08,0,8.09,0.37,12.04,1.1c3.94,0.74,7.08,1.74,9.42,3.01v20.36h-11.03v-11.13&#10;&#9;&#9;&#9;c-0.2,0-0.4-0.03-0.6-0.1c-1.47-0.4-3.06-0.72-4.76-0.95c-1.7-0.23-3.39-0.35-5.06-0.35c-3.21,0-5.73,0.64-7.57,1.91&#10;&#9;&#9;&#9;c-1.84,1.27-2.76,2.98-2.76,5.11c0,2.21,0.85,4.01,2.56,5.42c1.7,1.4,3.81,2.67,6.32,3.81c2.51,1.14,5.24,2.27,8.22,3.41&#10;&#9;&#9;&#9;c2.97,1.14,5.72,2.52,8.22,4.16c2.51,1.64,4.61,3.7,6.32,6.17c1.7,2.48,2.56,5.58,2.56,9.33c0,3.61-0.67,6.77-2.01,9.48&#10;&#9;&#9;&#9;c-1.34,2.71-3.21,4.98-5.62,6.82c-2.41,1.84-5.25,3.21-8.52,4.11c-3.28,0.9-6.82,1.35-10.63,1.35c-2.54,0-4.9-0.2-7.07-0.6&#10;&#9;&#9;&#9;c-2.17-0.4-4.18-0.9-6.02-1.5c-1.84-0.6-3.46-1.24-4.86-1.91c-1.4-0.67-2.54-1.23-3.41-1.7V397.12z" class="st0"/>
		<g>
			<g>
				<path d="M379.59,326.18h-46.03v-14.24h15.34v-38.97l-11.94,9.14l-7.94-10.59l24.56-18.74h10.97v59.17h15.04V326.18z&#10;&#9;&#9;&#9;&#9;&#9; M336.77,322.97h39.61v-7.82h-15.04v-59.17h-6.68l-21.17,16.15l4.09,5.45l14.53-11.12v48.68h-15.34V322.97z" class="st0"/>
			</g>
			<g>
				<path d="M353.76,406.55c-9.03,0-16.04-3.38-20.83-10.04c-4.68-6.5-7.05-15.98-7.05-28.16&#10;&#9;&#9;&#9;&#9;&#9;c0-6.2,0.66-11.73,1.97-16.43c1.33-4.76,3.23-8.78,5.66-11.93c2.46-3.2,5.45-5.64,8.9-7.25c3.42-1.6,7.28-2.41,11.45-2.41&#10;&#9;&#9;&#9;&#9;&#9;c8.94,0,15.94,3.2,20.8,9.5c4.76,6.18,7.18,15.77,7.18,28.51c0,6.27-0.66,11.83-1.97,16.53c-1.32,4.75-3.23,8.78-5.65,11.97&#10;&#9;&#9;&#9;&#9;&#9;c-2.47,3.24-5.48,5.7-8.96,7.3C361.8,405.74,357.93,406.55,353.76,406.55z M353.86,333.55c-3.7,0-7.1,0.71-10.09,2.1&#10;&#9;&#9;&#9;&#9;&#9;c-2.97,1.39-5.57,3.51-7.71,6.29c-2.18,2.83-3.9,6.47-5.11,10.83c-1.23,4.42-1.85,9.65-1.85,15.56c0,11.5,2.17,20.35,6.44,26.29&#10;&#9;&#9;&#9;&#9;&#9;c4.22,5.86,10.18,8.71,18.23,8.71c3.71,0,7.12-0.71,10.15-2.11c3-1.38,5.61-3.52,7.75-6.33c2.18-2.87,3.9-6.53,5.12-10.89&#10;&#9;&#9;&#9;&#9;&#9;c1.23-4.42,1.85-9.69,1.85-15.66c0-12.01-2.19-20.94-6.51-26.55C367.84,336.25,361.86,333.55,353.86,333.55z M353.87,395.52&#10;&#9;&#9;&#9;&#9;&#9;c-6.18,0-10.47-3.44-12.76-10.22l-0.33-0.99l27.59-25.32l0.23,3.32c0.07,0.96,0.12,1.93,0.15,2.92&#10;&#9;&#9;&#9;&#9;&#9;c0.03,0.99,0.05,2.02,0.05,3.11c0,9.26-1.21,15.88-3.69,20.25C362.49,393.19,358.71,395.52,353.87,395.52z M344.5,385.25&#10;&#9;&#9;&#9;&#9;&#9;c1.87,4.75,4.94,7.06,9.36,7.06c3.65,0,6.42-1.74,8.45-5.31c2.17-3.81,3.27-10.09,3.27-18.66c0-0.84-0.01-1.64-0.03-2.42&#10;&#9;&#9;&#9;&#9;&#9;L344.5,385.25z M339.36,377.4l-0.24-3.33c-0.07-0.96-0.12-1.89-0.15-2.81c-0.03-0.92-0.05-1.89-0.05-2.92&#10;&#9;&#9;&#9;&#9;&#9;c0-9.05,1.19-15.59,3.63-19.98c2.58-4.64,6.35-6.99,11.2-6.99c6.24,0,10.53,3.27,12.76,9.7l0.34,0.99L339.36,377.4z&#10;&#9;&#9;&#9;&#9;&#9; M353.75,344.58c-3.65,0-6.4,1.75-8.4,5.34c-2.14,3.85-3.23,10.05-3.23,18.42c0,0.73,0.01,1.44,0.03,2.11l20.95-19.31&#10;&#9;&#9;&#9;&#9;&#9;C361.29,346.73,358.22,344.58,353.75,344.58z" class="st0"/>
			</g>
			<g>
				<path d="M354.27,249.04c-9.03,0-16.04-3.38-20.83-10.04c-4.68-6.5-7.05-15.98-7.05-28.16&#10;&#9;&#9;&#9;&#9;&#9;c0-6.2,0.66-11.73,1.97-16.43c1.33-4.76,3.23-8.77,5.66-11.93c2.46-3.2,5.46-5.64,8.9-7.24c3.42-1.6,7.27-2.41,11.45-2.41&#10;&#9;&#9;&#9;&#9;&#9;c8.94,0,15.94,3.2,20.8,9.5c4.76,6.18,7.18,15.77,7.18,28.51c0,6.27-0.66,11.83-1.97,16.53c-1.32,4.76-3.23,8.78-5.65,11.97&#10;&#9;&#9;&#9;&#9;&#9;c-2.47,3.24-5.48,5.7-8.96,7.3C362.31,248.23,358.44,249.04,354.27,249.04z M354.37,176.03c-3.7,0-7.1,0.71-10.09,2.11&#10;&#9;&#9;&#9;&#9;&#9;c-2.97,1.39-5.57,3.5-7.71,6.29c-2.18,2.83-3.9,6.47-5.11,10.83c-1.23,4.42-1.85,9.65-1.85,15.56c0,11.5,2.17,20.35,6.44,26.29&#10;&#9;&#9;&#9;&#9;&#9;c4.22,5.86,10.18,8.71,18.23,8.71c3.7,0,7.12-0.71,10.15-2.11c3-1.38,5.6-3.51,7.75-6.33c2.18-2.86,3.9-6.53,5.12-10.89&#10;&#9;&#9;&#9;&#9;&#9;c1.23-4.42,1.85-9.69,1.85-15.67c0-12.01-2.19-20.94-6.51-26.55C368.35,178.73,362.37,176.03,354.37,176.03z M354.38,238.01&#10;&#9;&#9;&#9;&#9;&#9;c-6.18,0-10.47-3.44-12.76-10.22l-0.33-0.99l27.59-25.32l0.23,3.32c0.07,0.96,0.12,1.93,0.15,2.92&#10;&#9;&#9;&#9;&#9;&#9;c0.03,0.99,0.05,2.03,0.05,3.11c0,9.26-1.21,15.89-3.69,20.25C363,235.67,359.22,238.01,354.38,238.01z M345.01,227.73&#10;&#9;&#9;&#9;&#9;&#9;c1.87,4.75,4.94,7.06,9.36,7.06c3.66,0,6.42-1.74,8.45-5.31c2.17-3.81,3.27-10.09,3.27-18.66c0-0.84-0.01-1.64-0.03-2.42&#10;&#9;&#9;&#9;&#9;&#9;L345.01,227.73z M339.87,219.88l-0.24-3.33c-0.07-0.95-0.12-1.89-0.15-2.81c-0.03-0.92-0.05-1.89-0.05-2.92&#10;&#9;&#9;&#9;&#9;&#9;c0-9.05,1.19-15.59,3.63-19.98c2.58-4.64,6.35-6.99,11.2-6.99c6.24,0,10.53,3.26,12.76,9.7l0.34,0.99L339.87,219.88z&#10;&#9;&#9;&#9;&#9;&#9; M354.26,187.06c-3.65,0-6.4,1.75-8.4,5.34c-2.14,3.85-3.23,10.05-3.23,18.42c0,0.73,0.01,1.44,0.03,2.11l20.96-19.31&#10;&#9;&#9;&#9;&#9;&#9;C361.8,189.21,358.73,187.06,354.26,187.06z" class="st0"/>
			</g>
		</g>
		<path d="M269.09,239.61h11.03v9.93c0.2,0.07,0.4,0.14,0.6,0.2c1.54,0.67,3.22,1.22,5.06,1.65&#10;&#9;&#9;&#9;c1.84,0.44,3.79,0.65,5.87,0.65c3.74,0,6.65-0.75,8.72-2.26c2.07-1.5,3.11-3.53,3.11-6.07c0-2.27-0.85-4.11-2.56-5.52&#10;&#9;&#9;&#9;c-1.71-1.4-3.81-2.64-6.32-3.71c-2.51-1.07-5.25-2.14-8.22-3.21c-2.98-1.07-5.72-2.42-8.22-4.06c-2.51-1.64-4.61-3.69-6.32-6.17&#10;&#9;&#9;&#9;c-1.71-2.47-2.56-5.68-2.56-9.63c0-3.01,0.59-5.77,1.76-8.27c1.17-2.51,2.81-4.66,4.91-6.47c2.11-1.81,4.63-3.21,7.57-4.21&#10;&#9;&#9;&#9;c2.94-1,6.22-1.5,9.83-1.5c4.08,0,8.09,0.37,12.03,1.1c3.94,0.74,7.09,1.74,9.43,3.01v20.36h-11.03v-11.13&#10;&#9;&#9;&#9;c-0.2,0-0.4-0.03-0.6-0.1c-1.47-0.4-3.06-0.72-4.76-0.95c-1.7-0.23-3.39-0.35-5.06-0.35c-3.21,0-5.73,0.64-7.57,1.91&#10;&#9;&#9;&#9;c-1.84,1.27-2.76,2.98-2.76,5.11c0,2.21,0.85,4.01,2.56,5.41c1.7,1.4,3.81,2.67,6.32,3.81c2.51,1.14,5.25,2.27,8.22,3.41&#10;&#9;&#9;&#9;c2.97,1.14,5.72,2.52,8.22,4.16c2.51,1.64,4.61,3.69,6.32,6.17c1.7,2.47,2.56,5.58,2.56,9.33c0,3.61-0.67,6.77-2.01,9.48&#10;&#9;&#9;&#9;c-1.34,2.71-3.21,4.98-5.62,6.82c-2.41,1.84-5.25,3.21-8.52,4.11c-3.28,0.9-6.82,1.35-10.63,1.35c-2.54,0-4.9-0.2-7.07-0.6&#10;&#9;&#9;&#9;c-2.17-0.4-4.18-0.9-6.02-1.5c-1.84-0.6-3.46-1.24-4.86-1.91c-1.4-0.67-2.54-1.23-3.41-1.7V239.61z" class="st0"/>
		<path d="M431.54,239h11.03v20.06c-2.14,1.54-4.86,2.74-8.17,3.61c-3.31,0.87-6.7,1.3-10.18,1.3&#10;&#9;&#9;&#9;c-4.41,0-8.61-0.65-12.59-1.95c-3.98-1.31-7.47-3.41-10.48-6.32c-3.01-2.91-5.42-6.69-7.22-11.33c-1.8-4.65-2.71-10.28-2.71-16.9&#10;&#9;&#9;&#9;c0-6.88,1.02-12.65,3.06-17.3c2.04-4.65,4.66-8.39,7.87-11.23c3.21-2.84,6.79-4.88,10.73-6.12c3.94-1.24,7.82-1.85,11.63-1.85&#10;&#9;&#9;&#9;c4.01,0,7.4,0.33,10.18,1c2.77,0.67,5.06,1.44,6.87,2.31v20.86h-11.03V203.7c-2.07-0.33-4.21-0.5-6.42-0.5&#10;&#9;&#9;&#9;c-2.61,0-5.03,0.49-7.27,1.45c-2.24,0.97-4.2,2.46-5.87,4.46c-1.67,2.01-2.98,4.53-3.91,7.57c-0.94,3.04-1.4,6.64-1.4,10.78&#10;&#9;&#9;&#9;c0,3.61,0.43,6.9,1.3,9.88c0.87,2.98,2.14,5.53,3.81,7.67c1.67,2.14,3.71,3.8,6.12,4.96c2.41,1.17,5.15,1.76,8.22,1.76&#10;&#9;&#9;&#9;c2.21,0,4.35-0.2,6.42-0.6V239z" class="st0"/>
		<path d="M454.03,250.34h17.75v-45.73h-17.75v-12.23h49.34v12.23h-17.85v45.73h17.85v12.23h-49.34V250.34z" class="st0"/>
		<g>
			<rect height="12.21" width="43.34" class="st0" y="192.37" x="520.81"/>
			<path d="M554.3,207.61h-23.56L513,262.57h13.74l4.81-15.54h20.96l5.01,15.54h14.44L554.3,207.61z M534.76,236&#10;&#9;&#9;&#9;&#9;l7.02-23.47h0.9l7.12,23.47H534.76z" class="st0"/>
		</g>
	</g>
	<g>
		<g>
			<path d="M454.03,299.69v-2.35h6.11v-12.86h-6.11v-2.35h8.89v15.21h5.97v2.35H454.03z M459.16,277.14&#10;&#9;&#9;&#9;&#9;c0-0.63,0.21-1.18,0.63-1.63c0.42-0.46,0.96-0.69,1.62-0.69c0.68,0,1.25,0.23,1.7,0.69c0.46,0.46,0.68,1,0.68,1.63&#10;&#9;&#9;&#9;&#9;c0,0.61-0.23,1.12-0.68,1.55c-0.46,0.42-1.02,0.63-1.7,0.63c-0.66,0-1.19-0.21-1.62-0.63&#10;&#9;&#9;&#9;&#9;C459.37,278.26,459.16,277.75,459.16,277.14z" class="st0"/>
			<path d="M473.51,288.27c0-0.21-0.01-0.49-0.02-0.83c-0.01-0.34-0.03-0.69-0.05-1.05c-0.02-0.36-0.05-0.72-0.09-1.07&#10;&#9;&#9;&#9;&#9;c-0.03-0.35-0.08-0.66-0.12-0.91h-2.35v-2.28h4.71l0.32,2.85h0.17c0.23-0.4,0.54-0.79,0.93-1.18c0.39-0.39,0.84-0.74,1.35-1.05&#10;&#9;&#9;&#9;&#9;c0.51-0.32,1.09-0.57,1.72-0.76c0.63-0.19,1.3-0.28,2-0.28c1.08,0,2.03,0.12,2.86,0.35s1.52,0.65,2.07,1.25&#10;&#9;&#9;&#9;&#9;c0.55,0.6,0.96,1.41,1.25,2.42s0.42,2.31,0.42,3.88v10.08h-2.77v-9.53c0-1.94-0.32-3.4-0.95-4.38c-0.63-0.98-1.77-1.47-3.43-1.47&#10;&#9;&#9;&#9;&#9;c-0.61,0-1.2,0.12-1.77,0.37s-1.09,0.57-1.56,0.96c-0.47,0.4-0.87,0.86-1.22,1.38c-0.35,0.53-0.61,1.08-0.77,1.66v11h-2.7V288.27&#10;&#9;&#9;&#9;&#9;z" class="st0"/>
			<path d="M491.95,282.12h4.18v-3.48l2.77-0.77v4.25h9.38v2.35h-9.38v8.29c0,1.71,0.41,2.97,1.24,3.79&#10;&#9;&#9;&#9;&#9;c0.83,0.82,2.01,1.23,3.55,1.23c1.05,0,1.97-0.2,2.75-0.6c0.78-0.4,1.49-0.83,2.12-1.3l0.91,2.07c-0.82,0.66-1.8,1.18-2.93,1.58&#10;&#9;&#9;&#9;&#9;s-2.3,0.6-3.5,0.6c-0.94,0-1.82-0.13-2.65-0.4c-0.83-0.27-1.56-0.68-2.2-1.25c-0.63-0.56-1.14-1.28-1.51-2.16&#10;&#9;&#9;&#9;&#9;c-0.38-0.88-0.56-1.93-0.56-3.14v-8.71h-4.18V282.12z" class="st0"/>
			<path d="M529.09,297.47c-0.42,0.38-0.92,0.73-1.49,1.05c-0.57,0.33-1.2,0.61-1.88,0.84s-1.39,0.42-2.13,0.54&#10;&#9;&#9;&#9;&#9;c-0.74,0.13-1.48,0.19-2.23,0.19c-1.4,0-2.65-0.22-3.72-0.65c-1.08-0.43-1.98-1.05-2.7-1.86c-0.73-0.81-1.28-1.77-1.65-2.9&#10;&#9;&#9;&#9;&#9;c-0.38-1.12-0.56-2.39-0.56-3.79c0-1.47,0.2-2.79,0.62-3.93c0.41-1.15,1-2.11,1.77-2.88c0.77-0.77,1.71-1.36,2.81-1.77&#10;&#9;&#9;&#9;&#9;c1.1-0.41,2.33-0.61,3.69-0.61c0.98,0,1.95,0.13,2.91,0.39c0.96,0.26,1.81,0.74,2.55,1.46c0.74,0.71,1.31,1.7,1.7,2.95&#10;&#9;&#9;&#9;&#9;c0.4,1.25,0.54,2.87,0.42,4.86h-13.56c0,2.11,0.57,3.68,1.7,4.72c1.13,1.04,2.64,1.56,4.54,1.56c0.63,0,1.26-0.08,1.87-0.23&#10;&#9;&#9;&#9;&#9;c0.62-0.15,1.21-0.33,1.77-0.54c0.56-0.21,1.06-0.44,1.49-0.7c0.43-0.26,0.76-0.49,1-0.7L529.09,297.47z M521.7,284.02&#10;&#9;&#9;&#9;&#9;c-0.77,0-1.5,0.08-2.19,0.25c-0.69,0.16-1.3,0.44-1.82,0.83c-0.52,0.39-0.96,0.89-1.29,1.51c-0.34,0.62-0.55,1.39-0.65,2.3h10.89&#10;&#9;&#9;&#9;&#9;c-0.12-1.54-0.61-2.75-1.49-3.6C524.27,284.45,523.12,284.02,521.7,284.02z" class="st0"/>
			<path d="M533.26,299.69v-2.35H538v-12.86h-4.74v-2.35h6.57l0.56,2.28h0.17c0.8-0.73,1.69-1.35,2.67-1.86&#10;&#9;&#9;&#9;&#9;c0.98-0.51,2.15-0.77,3.51-0.77c0.8,0,1.43,0.15,1.91,0.46c0.48,0.31,0.86,0.75,1.12,1.34s0.45,1.29,0.54,2.12&#10;&#9;&#9;&#9;&#9;c0.09,0.83,0.14,1.77,0.14,2.83l-2.46,0.04c0-1.49-0.15-2.58-0.44-3.27c-0.29-0.7-0.83-1.05-1.6-1.05&#10;&#9;&#9;&#9;&#9;c-0.73,0-1.38,0.11-1.97,0.32c-0.59,0.21-1.1,0.47-1.53,0.77c-0.43,0.3-0.8,0.61-1.11,0.91c-0.31,0.3-0.53,0.56-0.67,0.77v10.33&#10;&#9;&#9;&#9;&#9;h6.74v2.35H533.26z" class="st0"/>
			<path d="M555.84,288.27c0-0.21-0.01-0.49-0.02-0.83c-0.01-0.34-0.03-0.69-0.05-1.05c-0.02-0.36-0.05-0.72-0.09-1.07&#10;&#9;&#9;&#9;&#9;c-0.04-0.35-0.08-0.66-0.12-0.91h-2.35v-2.28h4.71l0.32,2.85h0.18c0.23-0.4,0.54-0.79,0.93-1.18c0.39-0.39,0.84-0.74,1.35-1.05&#10;&#9;&#9;&#9;&#9;c0.52-0.32,1.09-0.57,1.72-0.76c0.63-0.19,1.3-0.28,2-0.28c1.08,0,2.03,0.12,2.86,0.35s1.52,0.65,2.07,1.25&#10;&#9;&#9;&#9;&#9;c0.55,0.6,0.97,1.41,1.25,2.42c0.28,1.02,0.42,2.31,0.42,3.88v10.08h-2.77v-9.53c0-1.94-0.31-3.4-0.94-4.38&#10;&#9;&#9;&#9;&#9;c-0.63-0.98-1.77-1.47-3.43-1.47c-0.61,0-1.2,0.12-1.77,0.37s-1.09,0.57-1.56,0.96c-0.47,0.4-0.87,0.86-1.23,1.38&#10;&#9;&#9;&#9;&#9;c-0.35,0.53-0.61,1.08-0.77,1.66v11h-2.7V288.27z" class="st0"/>
			<path d="M591.97,297.47c-0.42,0.38-0.92,0.73-1.49,1.05c-0.57,0.33-1.2,0.61-1.88,0.84s-1.39,0.42-2.13,0.54&#10;&#9;&#9;&#9;&#9;c-0.74,0.13-1.48,0.19-2.23,0.19c-1.4,0-2.65-0.22-3.72-0.65c-1.08-0.43-1.98-1.05-2.7-1.86c-0.73-0.81-1.28-1.77-1.65-2.9&#10;&#9;&#9;&#9;&#9;c-0.38-1.12-0.56-2.39-0.56-3.79c0-1.47,0.2-2.79,0.62-3.93c0.41-1.15,1-2.11,1.77-2.88c0.77-0.77,1.71-1.36,2.81-1.77&#10;&#9;&#9;&#9;&#9;c1.1-0.41,2.33-0.61,3.69-0.61c0.98,0,1.95,0.13,2.91,0.39c0.96,0.26,1.81,0.74,2.55,1.46c0.74,0.71,1.31,1.7,1.7,2.95&#10;&#9;&#9;&#9;&#9;c0.4,1.25,0.54,2.87,0.42,4.86h-13.56c0,2.11,0.57,3.68,1.7,4.72c1.13,1.04,2.64,1.56,4.54,1.56c0.63,0,1.26-0.08,1.87-0.23&#10;&#9;&#9;&#9;&#9;c0.62-0.15,1.21-0.33,1.77-0.54c0.56-0.21,1.06-0.44,1.49-0.7c0.43-0.26,0.76-0.49,1-0.7L591.97,297.47z M584.58,284.02&#10;&#9;&#9;&#9;&#9;c-0.77,0-1.5,0.08-2.19,0.25c-0.69,0.16-1.3,0.44-1.82,0.83c-0.52,0.39-0.96,0.89-1.29,1.51c-0.34,0.62-0.55,1.39-0.65,2.3h10.89&#10;&#9;&#9;&#9;&#9;c-0.12-1.54-0.61-2.75-1.49-3.6C587.15,284.45,586,284.02,584.58,284.02z" class="st0"/>
			<path d="M595.03,282.12h4.18v-3.48l2.77-0.77v4.25h9.38v2.35h-9.38v8.29c0,1.71,0.41,2.97,1.24,3.79&#10;&#9;&#9;&#9;&#9;c0.83,0.82,2.01,1.23,3.55,1.23c1.05,0,1.97-0.2,2.75-0.6c0.78-0.4,1.49-0.83,2.12-1.3l0.91,2.07c-0.82,0.66-1.8,1.18-2.93,1.58&#10;&#9;&#9;&#9;&#9;c-1.14,0.4-2.3,0.6-3.49,0.6c-0.94,0-1.82-0.13-2.65-0.4c-0.83-0.27-1.56-0.68-2.2-1.25c-0.63-0.56-1.14-1.28-1.51-2.16&#10;&#9;&#9;&#9;&#9;c-0.38-0.88-0.56-1.93-0.56-3.14v-8.71h-4.18V282.12z" class="st0"/>
			<path d="M617.78,283.49c1.01-0.58,2.14-1.01,3.41-1.26c1.26-0.26,2.51-0.39,3.72-0.39c1.19,0,2.17,0.19,2.93,0.56&#10;&#9;&#9;&#9;&#9;c0.76,0.38,1.36,0.86,1.79,1.46c0.43,0.6,0.72,1.28,0.88,2.04c0.15,0.76,0.23,1.53,0.23,2.3c0,0.89-0.02,1.84-0.07,2.84&#10;&#9;&#9;&#9;&#9;c-0.05,1.01-0.08,2.01-0.11,3.02c0,1.17,0.07,2.28,0.21,3.34h2.35v2.28h-4.64l-0.31-2.63H628c-0.14,0.21-0.35,0.48-0.63,0.81&#10;&#9;&#9;&#9;&#9;c-0.28,0.33-0.65,0.65-1.11,0.97c-0.46,0.32-1.02,0.59-1.67,0.83c-0.66,0.23-1.43,0.35-2.33,0.35c-1.74,0-3.11-0.44-4.12-1.34&#10;&#9;&#9;&#9;&#9;c-1.01-0.89-1.51-2.11-1.51-3.65c0-1.19,0.26-2.19,0.79-2.99c0.53-0.8,1.29-1.41,2.27-1.83c0.99-0.42,2.18-0.67,3.58-0.74&#10;&#9;&#9;&#9;&#9;c1.4-0.07,2.97,0.02,4.7,0.28c0.12-1.08,0.13-1.97,0.05-2.69c-0.08-0.71-0.27-1.28-0.56-1.7c-0.29-0.42-0.71-0.72-1.23-0.9&#10;&#9;&#9;&#9;&#9;c-0.53-0.17-1.18-0.26-1.96-0.26c-1.06,0-2.07,0.15-3.03,0.44c-0.96,0.29-1.82,0.59-2.57,0.9L617.78,283.49z M622.98,297.65&#10;&#9;&#9;&#9;&#9;c0.66,0,1.26-0.11,1.83-0.32c0.56-0.21,1.05-0.48,1.47-0.81c0.42-0.33,0.77-0.68,1.05-1.07c0.28-0.39,0.49-0.75,0.63-1.11v-2.46&#10;&#9;&#9;&#9;&#9;c-1.22-0.21-2.34-0.32-3.37-0.32c-1.03,0-1.92,0.11-2.67,0.33c-0.75,0.22-1.34,0.57-1.76,1.04c-0.42,0.47-0.63,1.08-0.63,1.83&#10;&#9;&#9;&#9;&#9;c0,0.77,0.26,1.45,0.79,2.02C620.85,297.36,621.74,297.65,622.98,297.65z" class="st0"/>
		</g>
		<g>
			<path d="M456.66,318.8c0-0.21-0.01-0.49-0.02-0.83c-0.01-0.34-0.03-0.69-0.05-1.05c-0.02-0.36-0.05-0.72-0.09-1.07&#10;&#9;&#9;&#9;&#9;c-0.04-0.35-0.08-0.66-0.12-0.91h-2.35v-2.28h4.67l0.35,2.46h0.18c0.63-0.82,1.43-1.5,2.41-2.05c0.97-0.55,2.16-0.83,3.56-0.83&#10;&#9;&#9;&#9;&#9;c2.51,0,4.39,0.69,5.65,2.07c1.26,1.38,1.9,3.64,1.9,6.78c0,1.47-0.22,2.8-0.65,3.99c-0.43,1.18-1.05,2.18-1.84,3&#10;&#9;&#9;&#9;&#9;c-0.8,0.82-1.76,1.45-2.88,1.9c-1.12,0.44-2.37,0.67-3.72,0.67c-0.49,0-0.93-0.02-1.32-0.05c-0.39-0.04-0.74-0.08-1.05-0.14&#10;&#9;&#9;&#9;&#9;c-0.32-0.06-0.63-0.13-0.93-0.23c-0.3-0.09-0.63-0.21-0.98-0.35v7.38h-2.71V318.8z M464.74,314.84c-0.7,0-1.36,0.13-1.98,0.39&#10;&#9;&#9;&#9;&#9;c-0.62,0.26-1.17,0.6-1.65,1.02c-0.48,0.42-0.87,0.89-1.18,1.4c-0.3,0.51-0.49,1.03-0.56,1.54v7.99&#10;&#9;&#9;&#9;&#9;c0.51,0.35,1.09,0.63,1.74,0.82c0.64,0.2,1.49,0.3,2.55,0.3c1.87,0,3.37-0.61,4.5-1.84c1.12-1.23,1.69-3.02,1.69-5.38&#10;&#9;&#9;&#9;&#9;c0-1.99-0.39-3.52-1.18-4.61C467.87,315.38,466.57,314.84,464.74,314.84z" class="st0"/>
			<path d="M477.62,314.03c1.01-0.58,2.14-1.01,3.41-1.26c1.26-0.26,2.51-0.39,3.72-0.39c1.19,0,2.17,0.19,2.93,0.56&#10;&#9;&#9;&#9;&#9;c0.76,0.38,1.36,0.86,1.79,1.46c0.43,0.6,0.72,1.28,0.88,2.04c0.15,0.76,0.23,1.53,0.23,2.3c0,0.89-0.02,1.84-0.07,2.84&#10;&#9;&#9;&#9;&#9;c-0.05,1.01-0.08,2.01-0.11,3.02c0,1.17,0.07,2.28,0.21,3.34h2.35v2.28h-4.64l-0.31-2.63h-0.18c-0.14,0.21-0.35,0.48-0.63,0.81&#10;&#9;&#9;&#9;&#9;c-0.28,0.33-0.65,0.65-1.11,0.97c-0.46,0.32-1.02,0.59-1.67,0.83c-0.66,0.23-1.43,0.35-2.33,0.35c-1.74,0-3.11-0.44-4.12-1.34&#10;&#9;&#9;&#9;&#9;c-1.01-0.89-1.51-2.11-1.51-3.65c0-1.19,0.26-2.19,0.79-2.99c0.53-0.8,1.29-1.41,2.27-1.83c0.99-0.42,2.18-0.67,3.58-0.74&#10;&#9;&#9;&#9;&#9;c1.4-0.07,2.97,0.02,4.7,0.28c0.12-1.08,0.13-1.97,0.05-2.69c-0.08-0.71-0.27-1.28-0.56-1.7c-0.29-0.42-0.7-0.72-1.23-0.9&#10;&#9;&#9;&#9;&#9;c-0.53-0.17-1.18-0.26-1.96-0.26c-1.06,0-2.07,0.15-3.03,0.44c-0.96,0.29-1.82,0.59-2.57,0.9L477.62,314.03z M482.82,328.18&#10;&#9;&#9;&#9;&#9;c0.66,0,1.26-0.11,1.83-0.32c0.56-0.21,1.05-0.48,1.47-0.81c0.42-0.33,0.77-0.68,1.05-1.07c0.28-0.39,0.49-0.75,0.63-1.11v-2.46&#10;&#9;&#9;&#9;&#9;c-1.22-0.21-2.34-0.32-3.37-0.32c-1.03,0-1.92,0.11-2.67,0.33c-0.75,0.22-1.33,0.57-1.76,1.04c-0.42,0.47-0.63,1.08-0.63,1.83&#10;&#9;&#9;&#9;&#9;c0,0.77,0.26,1.45,0.79,2.02S481.58,328.18,482.82,328.18z" class="st0"/>
			<path d="M495.97,305.63h5.87v18.69c0,1.43,0.24,2.44,0.72,3.02c0.48,0.59,1.19,0.88,2.13,0.88&#10;&#9;&#9;&#9;&#9;c0.66,0,1.28-0.12,1.88-0.35c0.6-0.23,1.26-0.63,1.98-1.19l1.26,1.93c-0.38,0.33-0.79,0.62-1.23,0.88&#10;&#9;&#9;&#9;&#9;c-0.45,0.26-0.9,0.47-1.38,0.65c-0.47,0.18-0.94,0.31-1.41,0.4c-0.47,0.09-0.91,0.14-1.3,0.14c-0.87,0-1.64-0.11-2.33-0.33&#10;&#9;&#9;&#9;&#9;c-0.68-0.22-1.25-0.58-1.71-1.07c-0.46-0.49-0.8-1.14-1.04-1.95c-0.23-0.81-0.35-1.81-0.35-3v-16.33h-3.09V305.63z" class="st0"/>
			<path d="M514.76,330.22v-2.35h6.11v-12.86h-6.11v-2.35h8.89v15.21h5.97v2.35H514.76z M516.41,307.64h10.4v2.18h-10.4&#10;&#9;&#9;&#9;&#9;V307.64z" class="st0"/>
			<path d="M549.07,331.1c0,1.1-0.21,2.07-0.63,2.9c-0.42,0.83-1,1.51-1.74,2.05c-0.74,0.54-1.6,0.94-2.58,1.21&#10;&#9;&#9;&#9;&#9;c-0.98,0.27-2.05,0.4-3.2,0.4c-1.38,0-2.59-0.14-3.62-0.42c-1.03-0.28-1.92-0.64-2.67-1.09l1.33-2.49&#10;&#9;&#9;&#9;&#9;c0.21,0.19,0.48,0.37,0.82,0.54c0.34,0.18,0.73,0.34,1.17,0.49c0.44,0.15,0.92,0.28,1.42,0.37c0.5,0.09,1,0.14,1.49,0.14&#10;&#9;&#9;&#9;&#9;c1.03,0,1.89-0.09,2.57-0.28c0.69-0.19,1.24-0.48,1.66-0.88c0.42-0.4,0.72-0.91,0.91-1.55c0.19-0.63,0.28-1.41,0.28-2.32v-1.97&#10;&#9;&#9;&#9;&#9;h-0.14c-0.54,0.77-1.23,1.37-2.07,1.79c-0.84,0.42-1.93,0.63-3.26,0.63c-2.66,0-4.62-0.74-5.87-2.23&#10;&#9;&#9;&#9;&#9;c-1.25-1.49-1.87-3.8-1.87-6.94c0-3,0.8-5.26,2.39-6.8c1.59-1.53,3.96-2.3,7.09-2.3c1.45,0,2.69,0.1,3.71,0.3&#10;&#9;&#9;&#9;&#9;c1.02,0.2,1.95,0.45,2.79,0.75V331.1z M541.24,328.29c1.42,0,2.53-0.37,3.35-1.11c0.81-0.74,1.38-1.87,1.71-3.39v-8.32&#10;&#9;&#9;&#9;&#9;c-1.02-0.49-2.45-0.74-4.29-0.74c-1.86,0-3.33,0.55-4.39,1.65c-1.07,1.1-1.61,2.79-1.61,5.06c0,1.01,0.09,1.93,0.28,2.76&#10;&#9;&#9;&#9;&#9;c0.19,0.83,0.48,1.55,0.89,2.16c0.41,0.61,0.94,1.08,1.61,1.42C539.45,328.12,540.27,328.29,541.24,328.29z" class="st0"/>
			<path d="M566.18,325.48c0-0.75-0.29-1.33-0.88-1.74c-0.58-0.41-1.31-0.74-2.17-0.98c-0.86-0.25-1.8-0.47-2.82-0.68&#10;&#9;&#9;&#9;&#9;c-1.02-0.21-1.96-0.49-2.82-0.84c-0.86-0.35-1.59-0.83-2.17-1.42c-0.58-0.6-0.88-1.43-0.88-2.51c0-0.89,0.19-1.65,0.58-2.28&#10;&#9;&#9;&#9;&#9;c0.39-0.63,0.9-1.15,1.53-1.56c0.63-0.41,1.37-0.71,2.21-0.91c0.84-0.2,1.72-0.3,2.63-0.3c1.64,0,3.05,0.2,4.23,0.61&#10;&#9;&#9;&#9;&#9;c1.18,0.41,2.13,0.84,2.83,1.28l-1.12,2.21c-0.77-0.42-1.6-0.83-2.5-1.21c-0.9-0.39-2.03-0.58-3.38-0.58&#10;&#9;&#9;&#9;&#9;c-0.51,0-1.02,0.05-1.52,0.16c-0.5,0.11-0.96,0.26-1.37,0.47c-0.41,0.21-0.74,0.49-0.98,0.83c-0.25,0.34-0.37,0.75-0.37,1.25&#10;&#9;&#9;&#9;&#9;c0,0.61,0.29,1.08,0.88,1.4c0.58,0.33,1.31,0.6,2.17,0.83c0.86,0.22,1.8,0.43,2.82,0.63s1.96,0.49,2.82,0.86&#10;&#9;&#9;&#9;&#9;c0.86,0.38,1.59,0.88,2.17,1.51c0.58,0.63,0.88,1.49,0.88,2.56c0,1.62-0.64,2.95-1.92,4c-1.28,1.05-3.19,1.58-5.74,1.58&#10;&#9;&#9;&#9;&#9;c-0.77,0-1.53-0.07-2.28-0.21c-0.75-0.14-1.45-0.33-2.11-0.56c-0.66-0.23-1.25-0.5-1.79-0.79c-0.54-0.29-0.98-0.59-1.34-0.9&#10;&#9;&#9;&#9;&#9;l1.4-2.28c0.28,0.28,0.65,0.57,1.12,0.86c0.47,0.29,0.98,0.56,1.54,0.79c0.56,0.23,1.16,0.42,1.8,0.56&#10;&#9;&#9;&#9;&#9;c0.64,0.14,1.29,0.21,1.94,0.21c0.63,0,1.22-0.05,1.77-0.16c0.55-0.11,1.03-0.27,1.45-0.49c0.42-0.22,0.75-0.51,1-0.88&#10;&#9;&#9;&#9;&#9;C566.06,326.43,566.18,325.99,566.18,325.48z" class="st0"/>
		</g>
	</g>
</g>
</svg>