<?xml version="1.0" encoding="utf-8"?>
<svg xmlns="http://www.w3.org/2000/svg" preserveAspectRatio="none" viewBox="45 125 426 249" xmlns:bx="https://boxy-svg.com" width="426px" height="249px"><defs><bx:export><bx:file format="svg"/></bx:export></defs><path class="st0" d="M 79.243 265.015 L 91.683 265.015 L 91.683 293.595 L 45.553 293.595 L 45.553 223.395 L 59.293 223.395 L 59.293 281.355 L 79.253 281.355 L 79.253 265.015 L 79.243 265.015 Z" style="fill: #ffffff;"/><path class="st0" d="M 141.243 278.055 L 120.283 278.055 L 115.473 293.595 L 101.733 293.595 L 124.393 223.395 L 138.133 223.395 L 160.693 293.595 L 146.253 293.595 L 141.243 278.055 Z M 123.493 267.025 L 138.533 267.025 L 131.413 243.565 L 130.513 243.565 L 123.493 267.025 Z" style="fill: #ffffff;"/><path class="st0" d="M 228.623 270.635 L 239.653 270.635 L 239.653 280.565 C 239.853 280.635 240.053 280.705 240.253 280.765 C 241.793 281.435 243.473 281.985 245.313 282.415 C 247.153 282.855 249.103 283.065 251.183 283.065 C 254.923 283.065 257.833 282.315 259.903 280.805 C 261.973 279.305 263.013 277.275 263.013 274.735 C 263.013 272.465 262.163 270.625 260.453 269.215 C 258.753 267.815 256.643 266.575 254.133 265.505 C 251.623 264.435 248.883 263.365 245.913 262.295 C 242.943 261.225 240.193 259.875 237.693 258.235 C 235.183 256.595 233.073 254.545 231.373 252.065 C 229.663 249.595 228.813 246.385 228.813 242.435 C 228.813 239.425 229.403 236.665 230.573 234.165 C 231.743 231.655 233.383 229.505 235.483 227.695 C 237.593 225.895 240.113 224.485 243.053 223.485 C 245.993 222.485 249.273 221.985 252.883 221.985 C 256.953 221.985 260.973 222.355 264.913 223.085 C 268.863 223.825 271.993 224.825 274.343 226.095 L 274.343 246.455 L 263.313 246.455 L 263.313 235.325 C 263.113 235.325 262.913 235.295 262.703 235.225 C 261.233 234.825 259.643 234.505 257.943 234.275 C 256.233 234.045 254.553 233.925 252.883 233.925 C 249.673 233.925 247.143 234.565 245.313 235.835 C 243.473 237.105 242.553 238.815 242.553 240.945 C 242.553 243.155 243.413 244.955 245.113 246.365 C 246.823 247.765 248.923 249.035 251.433 250.175 C 253.943 251.315 256.683 252.445 259.653 253.585 C 262.623 254.725 265.373 256.105 267.873 257.745 C 270.383 259.385 272.493 261.445 274.193 263.915 C 275.903 266.395 276.753 269.495 276.753 273.245 C 276.753 276.855 276.083 280.015 274.743 282.725 C 273.403 285.435 271.533 287.705 269.123 289.545 C 266.723 291.385 263.873 292.755 260.593 293.655 C 257.313 294.555 253.773 295.005 249.963 295.005 C 247.423 295.005 245.063 294.805 242.893 294.405 C 240.723 294.005 238.713 293.505 236.873 292.905 C 235.033 292.305 233.413 291.665 232.013 290.995 C 230.613 290.325 229.473 289.765 228.603 289.295 L 228.603 270.635 L 228.623 270.635 Z" style="fill: #ffffff;"/><path class="st0" d="M 127.563 343.285 L 120.443 343.285 L 120.443 372.565 L 106.703 372.565 L 106.703 302.365 L 120.443 302.365 L 120.443 331.045 L 127.563 331.045 L 143.613 302.365 L 159.253 302.365 L 139.493 336.255 L 161.753 372.555 L 144.813 372.555 L 127.563 343.285 Z" style="fill: #ffffff;"/><path class="st0" d="M 229.813 302.365 C 230.413 302.295 231.473 302.195 232.973 302.065 C 234.473 301.935 236.183 301.815 238.083 301.715 C 239.993 301.615 241.963 301.535 244.003 301.465 C 246.043 301.405 247.863 301.365 249.463 301.365 C 255.683 301.365 260.833 302.265 264.903 304.075 C 268.983 305.885 272.203 308.375 274.583 311.545 C 276.953 314.725 278.613 318.465 279.543 322.775 C 280.483 327.085 280.943 331.785 280.943 336.865 C 280.943 341.475 280.473 345.985 279.543 350.405 C 278.603 354.815 276.923 358.745 274.483 362.185 C 272.043 365.625 268.663 368.405 264.353 370.505 C 260.043 372.615 254.503 373.665 247.753 373.665 C 246.683 373.665 245.313 373.635 243.643 373.565 C 241.973 373.495 240.263 373.415 238.533 373.315 C 236.793 373.215 235.123 373.115 233.523 373.015 C 231.923 372.915 230.683 372.795 229.813 372.665 L 229.813 302.365 Z M 249.963 313.595 C 248.693 313.595 247.453 313.645 246.253 313.745 C 245.053 313.845 244.143 313.935 243.543 313.995 L 243.543 361.025 C 243.813 361.095 244.213 361.145 244.743 361.175 C 245.273 361.205 245.833 361.245 246.403 361.275 C 246.973 361.315 247.523 361.345 248.053 361.375 C 248.583 361.405 249.023 361.425 249.353 361.425 C 253.233 361.425 256.323 360.705 258.633 359.265 C 260.943 357.825 262.663 355.945 263.803 353.595 C 264.943 351.255 265.673 348.615 266.013 345.675 C 266.343 342.735 266.513 339.795 266.513 336.855 C 266.513 334.315 266.363 331.675 266.063 328.935 C 265.763 326.195 265.063 323.685 263.953 321.415 C 262.853 319.145 261.193 317.265 258.993 315.795 C 256.783 314.335 253.773 313.595 249.963 313.595 Z" style="fill: #ffffff;"/><path class="st0" d="M 292.183 349.595 L 303.213 349.595 L 303.213 359.525 C 303.413 359.595 303.613 359.665 303.813 359.725 C 305.353 360.395 307.033 360.945 308.873 361.375 C 310.713 361.815 312.673 362.025 314.743 362.025 C 318.483 362.025 321.393 361.275 323.473 359.765 C 325.543 358.265 326.583 356.235 326.583 353.695 C 326.583 351.425 325.733 349.585 324.033 348.175 C 322.323 346.775 320.223 345.535 317.713 344.465 C 315.203 343.395 312.463 342.325 309.493 341.255 C 306.513 340.185 303.773 338.835 301.263 337.195 C 298.753 335.555 296.653 333.505 294.943 331.025 C 293.233 328.555 292.383 325.345 292.383 321.395 C 292.383 318.385 292.973 315.625 294.143 313.125 C 295.313 310.615 296.953 308.465 299.063 306.655 C 301.163 304.855 303.693 303.445 306.633 302.445 C 309.573 301.445 312.853 300.945 316.463 300.945 C 320.543 300.945 324.553 301.315 328.503 302.045 C 332.443 302.785 335.583 303.785 337.923 305.055 L 337.923 325.415 L 326.893 325.415 L 326.893 314.285 C 326.693 314.285 326.493 314.255 326.293 314.185 C 324.823 313.785 323.233 313.465 321.533 313.235 C 319.833 313.005 318.143 312.885 316.473 312.885 C 313.263 312.885 310.743 313.525 308.903 314.795 C 307.063 316.065 306.143 317.775 306.143 319.905 C 306.143 322.115 306.993 323.915 308.703 325.325 C 310.403 326.725 312.513 327.995 315.023 329.135 C 317.533 330.275 320.263 331.405 323.243 332.545 C 326.213 333.685 328.963 335.065 331.463 336.705 C 333.973 338.345 336.073 340.405 337.783 342.875 C 339.483 345.355 340.343 348.455 340.343 352.205 C 340.343 355.815 339.673 358.975 338.333 361.685 C 336.993 364.395 335.123 366.665 332.713 368.505 C 330.303 370.345 327.463 371.715 324.193 372.615 C 320.913 373.515 317.373 373.965 313.563 373.965 C 311.023 373.965 308.663 373.765 306.493 373.365 C 304.323 372.965 302.313 372.465 300.473 371.865 C 298.633 371.265 297.013 370.625 295.613 369.955 C 294.213 369.285 293.073 368.725 292.203 368.255 L 292.203 349.595 L 292.183 349.595 Z" style="fill: #ffffff;"/><path class="st0" d="M 217.203 278.655 L 171.173 278.655 L 171.173 264.415 L 186.513 264.415 L 186.513 225.445 L 174.573 234.585 L 166.633 223.995 L 191.193 205.255 L 202.163 205.255 L 202.163 264.425 L 217.203 264.425 L 217.203 278.655 Z M 174.383 275.445 L 213.993 275.445 L 213.993 267.625 L 198.953 267.625 L 198.953 208.455 L 192.273 208.455 L 171.103 224.605 L 175.193 230.055 L 189.723 218.935 L 189.723 267.615 L 174.383 267.615 L 174.383 275.445 L 174.383 275.445 Z" style="fill: #ffffff;"><title>LAIS</title><animateTransform type="translate" additive="sum" attributeName="transform" values="0 0;0 15;0 15;0 0" dur="5.2s" keyTimes="0; 0.48395; 0.59427; 1" calcMode="spline" keySplines="0.65 0 0.35 1; 0.65 0 0.35 1; 0.45 0 0.55 1" begin="1.9s" fill="freeze"/></path><path class="st0" d="M 191.373 359.025 C 182.343 359.025 175.333 355.645 170.543 348.985 C 165.863 342.485 163.493 333.005 163.493 320.825 C 163.493 314.625 164.153 309.095 165.463 304.395 C 166.793 299.635 168.693 295.615 171.123 292.465 C 173.583 289.265 176.573 286.825 180.023 285.215 C 183.443 283.615 187.303 282.805 191.473 282.805 C 200.413 282.805 207.413 286.005 212.273 292.305 C 217.033 298.485 219.453 308.075 219.453 320.815 C 219.453 327.085 218.793 332.645 217.483 337.345 C 216.163 342.095 214.253 346.125 211.833 349.315 C 209.363 352.555 206.353 355.015 202.873 356.615 C 199.413 358.215 195.543 359.025 191.373 359.025 Z M 191.473 286.025 C 187.773 286.025 184.373 286.735 181.383 288.125 C 178.413 289.515 175.813 291.635 173.673 294.415 C 171.493 297.245 169.773 300.885 168.563 305.245 C 167.333 309.665 166.713 314.895 166.713 320.805 C 166.713 332.305 168.883 341.155 173.153 347.095 C 177.373 352.955 183.333 355.805 191.383 355.805 C 195.093 355.805 198.503 355.095 201.533 353.695 C 204.533 352.315 207.143 350.175 209.283 347.365 C 211.463 344.495 213.183 340.835 214.403 336.475 C 215.633 332.055 216.253 326.785 216.253 320.815 C 216.253 308.805 214.063 299.875 209.743 294.265 C 205.453 288.725 199.473 286.025 191.473 286.025 Z M 191.483 347.995 C 185.303 347.995 181.013 344.555 178.723 337.775 L 178.393 336.785 L 205.983 311.465 L 206.213 314.785 C 206.283 315.745 206.333 316.715 206.363 317.705 C 206.393 318.695 206.413 319.725 206.413 320.815 C 206.413 330.075 205.203 336.695 202.723 341.065 C 200.103 345.665 196.323 347.995 191.483 347.995 Z M 182.113 337.725 C 183.983 342.475 187.053 344.785 191.473 344.785 C 195.123 344.785 197.893 343.045 199.923 339.475 C 202.093 335.665 203.193 329.385 203.193 320.815 C 203.193 319.975 203.183 319.175 203.163 318.395 L 182.113 337.725 Z M 176.973 329.875 L 176.733 326.545 C 176.663 325.585 176.613 324.655 176.583 323.735 C 176.553 322.815 176.533 321.845 176.533 320.815 C 176.533 311.765 177.723 305.225 180.163 300.835 C 182.743 296.195 186.513 293.845 191.363 293.845 C 197.603 293.845 201.893 297.115 204.123 303.545 L 204.463 304.535 L 176.973 329.875 Z M 191.363 297.055 C 187.713 297.055 184.963 298.805 182.963 302.395 C 180.823 306.245 179.733 312.445 179.733 320.815 C 179.733 321.545 179.743 322.255 179.763 322.925 L 200.713 303.615 C 198.903 299.205 195.833 297.055 191.363 297.055 Z" style="fill: #ffffff;"><title>KODS</title><animateTransform type="translate" additive="sum" attributeName="transform" values="0 0;0 15;0 15;0 0" dur="5.56s" fill="freeze" keyTimes="0; 0.35236; 0.63204; 1" calcMode="spline" keySplines="0.45 0 0.55 1; 0.45 0 0.55 1; 0.45 0 0.55 1" begin="1.49s"/></path><path class="st0" d="M 191.883 201.515 C 182.853 201.515 175.843 198.135 171.053 191.475 C 166.373 184.975 164.003 175.495 164.003 163.315 C 164.003 157.115 164.663 151.585 165.973 146.885 C 167.303 142.125 169.203 138.115 171.633 134.955 C 174.093 131.755 177.093 129.315 180.533 127.715 C 183.953 126.115 187.803 125.305 191.983 125.305 C 200.923 125.305 207.923 128.505 212.783 134.805 C 217.543 140.985 219.963 150.575 219.963 163.315 C 219.963 169.585 219.303 175.145 217.993 179.845 C 216.673 184.605 214.763 188.625 212.343 191.815 C 209.873 195.055 206.863 197.515 203.383 199.115 C 199.923 200.705 196.053 201.515 191.883 201.515 Z M 191.983 128.505 C 188.283 128.505 184.883 129.215 181.893 130.615 C 178.923 132.005 176.323 134.115 174.183 136.905 C 172.003 139.735 170.283 143.375 169.073 147.735 C 167.843 152.155 167.223 157.385 167.223 163.295 C 167.223 174.795 169.393 183.645 173.663 189.585 C 177.883 195.445 183.843 198.295 191.893 198.295 C 195.593 198.295 199.013 197.585 202.043 196.185 C 205.043 194.805 207.643 192.675 209.793 189.855 C 211.973 186.995 213.693 183.325 214.913 178.965 C 216.143 174.545 216.763 169.275 216.763 163.295 C 216.763 151.285 214.573 142.355 210.253 136.745 C 205.963 131.205 199.983 128.505 191.983 128.505 Z M 191.993 190.485 C 185.813 190.485 181.523 187.045 179.233 180.265 L 178.903 179.275 L 206.493 153.955 L 206.723 157.275 C 206.793 158.235 206.843 159.205 206.873 160.195 C 206.903 161.185 206.923 162.225 206.923 163.305 C 206.923 172.565 205.713 179.195 203.233 183.555 C 200.613 188.145 196.833 190.485 191.993 190.485 Z M 182.623 180.205 C 184.493 184.955 187.563 187.265 191.983 187.265 C 195.643 187.265 198.403 185.525 200.433 181.955 C 202.603 178.145 203.703 171.865 203.703 163.295 C 203.703 162.455 203.693 161.655 203.673 160.875 L 182.623 180.205 Z M 177.483 172.355 L 177.243 169.025 C 177.173 168.075 177.123 167.135 177.093 166.215 C 177.063 165.295 177.043 164.325 177.043 163.295 C 177.043 154.245 178.233 147.705 180.673 143.315 C 183.253 138.675 187.023 136.325 191.873 136.325 C 198.113 136.325 202.403 139.585 204.633 146.025 L 204.973 147.015 L 177.483 172.355 Z M 191.873 139.535 C 188.223 139.535 185.473 141.285 183.473 144.875 C 181.333 148.725 180.243 154.925 180.243 163.295 C 180.243 164.025 180.253 164.735 180.273 165.405 L 201.233 146.095 C 199.413 141.685 196.343 139.535 191.873 139.535 Z" style="fill: #ffffff; transform-box: fill-box; transform-origin: 50% 50%;"><title>SOCIĀ</title><animateTransform type="translate" additive="sum" attributeName="transform" values="0 0;0 15;0 15;0 0" dur="4.4s" keyTimes="0; 0.46288; 0.53182; 1" calcMode="spline" keySplines="0.45 0 0.55 1; 0.45 0 0.55 1; 0.45 0 0.55 1" begin="2.66s" fill="freeze"/></path><path class="st0" d="M 106.703 192.085 L 117.733 192.085 L 117.733 202.015 C 117.933 202.085 118.133 202.155 118.333 202.215 C 119.873 202.885 121.553 203.435 123.393 203.865 C 125.233 204.305 127.183 204.515 129.263 204.515 C 133.003 204.515 135.913 203.765 137.983 202.255 C 140.053 200.755 141.093 198.725 141.093 196.185 C 141.093 193.915 140.243 192.075 138.533 190.665 C 136.823 189.265 134.723 188.025 132.213 186.955 C 129.703 185.885 126.963 184.815 123.993 183.745 C 121.013 182.675 118.273 181.325 115.773 179.685 C 113.263 178.045 111.163 175.995 109.453 173.515 C 107.743 171.045 106.893 167.835 106.893 163.885 C 106.893 160.875 107.483 158.115 108.653 155.615 C 109.823 153.105 111.463 150.955 113.563 149.145 C 115.673 147.335 118.193 145.935 121.133 144.935 C 124.073 143.935 127.353 143.435 130.963 143.435 C 135.043 143.435 139.053 143.805 142.993 144.535 C 146.933 145.275 150.083 146.275 152.423 147.545 L 152.423 167.905 L 141.393 167.905 L 141.393 156.775 C 141.193 156.775 140.993 156.745 140.793 156.675 C 139.323 156.275 137.733 155.955 136.033 155.725 C 134.333 155.495 132.643 155.375 130.973 155.375 C 127.763 155.375 125.243 156.015 123.403 157.285 C 121.563 158.555 120.643 160.265 120.643 162.395 C 120.643 164.605 121.493 166.405 123.203 167.805 C 124.903 169.205 127.013 170.475 129.523 171.615 C 132.033 172.755 134.773 173.885 137.743 175.025 C 140.713 176.165 143.463 177.545 145.963 179.185 C 148.473 180.825 150.573 182.875 152.283 185.355 C 153.983 187.825 154.843 190.935 154.843 194.685 C 154.843 198.295 154.173 201.455 152.833 204.165 C 151.493 206.875 149.623 209.145 147.213 210.985 C 144.803 212.825 141.963 214.195 138.693 215.095 C 135.413 215.995 131.873 216.445 128.063 216.445 C 125.523 216.445 123.163 216.245 120.993 215.845 C 118.823 215.445 116.813 214.945 114.973 214.345 C 113.133 213.745 111.513 213.105 110.113 212.435 C 108.713 211.765 107.573 211.205 106.703 210.735 L 106.703 192.085 L 106.703 192.085 Z" style="fill: #ffffff;"/><path class="st0" d="M 269.153 191.475 L 280.183 191.475 L 280.183 211.535 C 278.043 213.075 275.323 214.275 272.013 215.145 C 268.703 216.015 265.313 216.445 261.833 216.445 C 257.423 216.445 253.223 215.795 249.243 214.495 C 245.263 213.185 241.773 211.085 238.763 208.175 C 235.753 205.265 233.343 201.485 231.543 196.845 C 229.743 192.195 228.833 186.565 228.833 179.945 C 228.833 173.065 229.853 167.295 231.893 162.645 C 233.933 157.995 236.553 154.255 239.763 151.415 C 242.973 148.575 246.553 146.535 250.493 145.295 C 254.433 144.055 258.313 143.445 262.123 143.445 C 266.133 143.445 269.523 143.775 272.303 144.445 C 275.073 145.115 277.363 145.885 279.173 146.755 L 279.173 167.615 L 268.143 167.615 L 268.143 156.175 C 266.073 155.845 263.933 155.675 261.723 155.675 C 259.113 155.675 256.693 156.165 254.453 157.125 C 252.213 158.095 250.253 159.585 248.583 161.585 C 246.913 163.595 245.603 166.115 244.673 169.155 C 243.733 172.195 243.273 175.795 243.273 179.935 C 243.273 183.545 243.703 186.835 244.573 189.815 C 245.443 192.795 246.713 195.345 248.383 197.485 C 250.053 199.625 252.093 201.285 254.503 202.445 C 256.913 203.615 259.653 204.205 262.723 204.205 C 264.933 204.205 267.073 204.005 269.143 203.605 L 269.143 191.475 L 269.153 191.475 Z" style="fill: #ffffff;"/><path class="st0" d="M 291.643 202.815 L 309.393 202.815 L 309.393 157.085 L 291.643 157.085 L 291.643 144.855 L 340.983 144.855 L 340.983 157.085 L 323.133 157.085 L 323.133 202.815 L 340.983 202.815 L 340.983 215.045 L 291.643 215.045 L 291.643 202.815 Z" style="fill: #ffffff;"/><rect x="358.423" y="144.845" class="st0" width="43.34" height="12.21" style="fill: #ffffff;"/><path class="st0" d="M 391.913 160.085 L 368.353 160.085 L 350.613 215.045 L 364.353 215.045 L 369.163 199.505 L 390.123 199.505 L 395.133 215.045 L 409.573 215.045 L 391.913 160.085 Z M 372.373 188.475 L 379.393 165.005 L 380.293 165.005 L 387.413 188.475 L 372.373 188.475 Z" style="fill: #ffffff;"/><g transform="matrix(1, 0, 0, 1, -162.387059, -47.524625)"><g><path class="st0" d="M454.03,299.69v-2.35h6.11v-12.86h-6.11v-2.35h8.89v15.21h5.97v2.35H454.03z M459.16,277.14 c0-0.63,0.21-1.18,0.63-1.63c0.42-0.46,0.96-0.69,1.62-0.69c0.68,0,1.25,0.23,1.7,0.69c0.46,0.46,0.68,1,0.68,1.63 c0,0.61-0.23,1.12-0.68,1.55c-0.46,0.42-1.02,0.63-1.7,0.63c-0.66,0-1.19-0.21-1.62-0.63 C459.37,278.26,459.16,277.75,459.16,277.14z" style="fill: #ffffff;"/><path class="st0" d="M473.51,288.27c0-0.21-0.01-0.49-0.02-0.83c-0.01-0.34-0.03-0.69-0.05-1.05c-0.02-0.36-0.05-0.72-0.09-1.07 c-0.03-0.35-0.08-0.66-0.12-0.91h-2.35v-2.28h4.71l0.32,2.85h0.17c0.23-0.4,0.54-0.79,0.93-1.18c0.39-0.39,0.84-0.74,1.35-1.05 c0.51-0.32,1.09-0.57,1.72-0.76c0.63-0.19,1.3-0.28,2-0.28c1.08,0,2.03,0.12,2.86,0.35s1.52,0.65,2.07,1.25 c0.55,0.6,0.96,1.41,1.25,2.42s0.42,2.31,0.42,3.88v10.08h-2.77v-9.53c0-1.94-0.32-3.4-0.95-4.38c-0.63-0.98-1.77-1.47-3.43-1.47 c-0.61,0-1.2,0.12-1.77,0.37s-1.09,0.57-1.56,0.96c-0.47,0.4-0.87,0.86-1.22,1.38c-0.35,0.53-0.61,1.08-0.77,1.66v11h-2.7V288.27 z" style="fill: #ffffff;"/><path class="st0" d="M491.95,282.12h4.18v-3.48l2.77-0.77v4.25h9.38v2.35h-9.38v8.29c0,1.71,0.41,2.97,1.24,3.79 c0.83,0.82,2.01,1.23,3.55,1.23c1.05,0,1.97-0.2,2.75-0.6c0.78-0.4,1.49-0.83,2.12-1.3l0.91,2.07c-0.82,0.66-1.8,1.18-2.93,1.58 s-2.3,0.6-3.5,0.6c-0.94,0-1.82-0.13-2.65-0.4c-0.83-0.27-1.56-0.68-2.2-1.25c-0.63-0.56-1.14-1.28-1.51-2.16 c-0.38-0.88-0.56-1.93-0.56-3.14v-8.71h-4.18V282.12z" style="fill: #ffffff;"/><path class="st0" d="M529.09,297.47c-0.42,0.38-0.92,0.73-1.49,1.05c-0.57,0.33-1.2,0.61-1.88,0.84s-1.39,0.42-2.13,0.54 c-0.74,0.13-1.48,0.19-2.23,0.19c-1.4,0-2.65-0.22-3.72-0.65c-1.08-0.43-1.98-1.05-2.7-1.86c-0.73-0.81-1.28-1.77-1.65-2.9 c-0.38-1.12-0.56-2.39-0.56-3.79c0-1.47,0.2-2.79,0.62-3.93c0.41-1.15,1-2.11,1.77-2.88c0.77-0.77,1.71-1.36,2.81-1.77 c1.1-0.41,2.33-0.61,3.69-0.61c0.98,0,1.95,0.13,2.91,0.39c0.96,0.26,1.81,0.74,2.55,1.46c0.74,0.71,1.31,1.7,1.7,2.95 c0.4,1.25,0.54,2.87,0.42,4.86h-13.56c0,2.11,0.57,3.68,1.7,4.72c1.13,1.04,2.64,1.56,4.54,1.56c0.63,0,1.26-0.08,1.87-0.23 c0.62-0.15,1.21-0.33,1.77-0.54c0.56-0.21,1.06-0.44,1.49-0.7c0.43-0.26,0.76-0.49,1-0.7L529.09,297.47z M521.7,284.02 c-0.77,0-1.5,0.08-2.19,0.25c-0.69,0.16-1.3,0.44-1.82,0.83c-0.52,0.39-0.96,0.89-1.29,1.51c-0.34,0.62-0.55,1.39-0.65,2.3h10.89 c-0.12-1.54-0.61-2.75-1.49-3.6C524.27,284.45,523.12,284.02,521.7,284.02z" style="fill: #ffffff;"/><path class="st0" d="M533.26,299.69v-2.35H538v-12.86h-4.74v-2.35h6.57l0.56,2.28h0.17c0.8-0.73,1.69-1.35,2.67-1.86 c0.98-0.51,2.15-0.77,3.51-0.77c0.8,0,1.43,0.15,1.91,0.46c0.48,0.31,0.86,0.75,1.12,1.34s0.45,1.29,0.54,2.12 c0.09,0.83,0.14,1.77,0.14,2.83l-2.46,0.04c0-1.49-0.15-2.58-0.44-3.27c-0.29-0.7-0.83-1.05-1.6-1.05 c-0.73,0-1.38,0.11-1.97,0.32c-0.59,0.21-1.1,0.47-1.53,0.77c-0.43,0.3-0.8,0.61-1.11,0.91c-0.31,0.3-0.53,0.56-0.67,0.77v10.33 h6.74v2.35H533.26z" style="fill: #ffffff;"/><path class="st0" d="M555.84,288.27c0-0.21-0.01-0.49-0.02-0.83c-0.01-0.34-0.03-0.69-0.05-1.05c-0.02-0.36-0.05-0.72-0.09-1.07 c-0.04-0.35-0.08-0.66-0.12-0.91h-2.35v-2.28h4.71l0.32,2.85h0.18c0.23-0.4,0.54-0.79,0.93-1.18c0.39-0.39,0.84-0.74,1.35-1.05 c0.52-0.32,1.09-0.57,1.72-0.76c0.63-0.19,1.3-0.28,2-0.28c1.08,0,2.03,0.12,2.86,0.35s1.52,0.65,2.07,1.25 c0.55,0.6,0.97,1.41,1.25,2.42c0.28,1.02,0.42,2.31,0.42,3.88v10.08h-2.77v-9.53c0-1.94-0.31-3.4-0.94-4.38 c-0.63-0.98-1.77-1.47-3.43-1.47c-0.61,0-1.2,0.12-1.77,0.37s-1.09,0.57-1.56,0.96c-0.47,0.4-0.87,0.86-1.23,1.38 c-0.35,0.53-0.61,1.08-0.77,1.66v11h-2.7V288.27z" style="fill: #ffffff;"/><path class="st0" d="M591.97,297.47c-0.42,0.38-0.92,0.73-1.49,1.05c-0.57,0.33-1.2,0.61-1.88,0.84s-1.39,0.42-2.13,0.54 c-0.74,0.13-1.48,0.19-2.23,0.19c-1.4,0-2.65-0.22-3.72-0.65c-1.08-0.43-1.98-1.05-2.7-1.86c-0.73-0.81-1.28-1.77-1.65-2.9 c-0.38-1.12-0.56-2.39-0.56-3.79c0-1.47,0.2-2.79,0.62-3.93c0.41-1.15,1-2.11,1.77-2.88c0.77-0.77,1.71-1.36,2.81-1.77 c1.1-0.41,2.33-0.61,3.69-0.61c0.98,0,1.95,0.13,2.91,0.39c0.96,0.26,1.81,0.74,2.55,1.46c0.74,0.71,1.31,1.7,1.7,2.95 c0.4,1.25,0.54,2.87,0.42,4.86h-13.56c0,2.11,0.57,3.68,1.7,4.72c1.13,1.04,2.64,1.56,4.54,1.56c0.63,0,1.26-0.08,1.87-0.23 c0.62-0.15,1.21-0.33,1.77-0.54c0.56-0.21,1.06-0.44,1.49-0.7c0.43-0.26,0.76-0.49,1-0.7L591.97,297.47z M584.58,284.02 c-0.77,0-1.5,0.08-2.19,0.25c-0.69,0.16-1.3,0.44-1.82,0.83c-0.52,0.39-0.96,0.89-1.29,1.51c-0.34,0.62-0.55,1.39-0.65,2.3h10.89 c-0.12-1.54-0.61-2.75-1.49-3.6C587.15,284.45,586,284.02,584.58,284.02z" style="fill: #ffffff;"/><path class="st0" d="M595.03,282.12h4.18v-3.48l2.77-0.77v4.25h9.38v2.35h-9.38v8.29c0,1.71,0.41,2.97,1.24,3.79 c0.83,0.82,2.01,1.23,3.55,1.23c1.05,0,1.97-0.2,2.75-0.6c0.78-0.4,1.49-0.83,2.12-1.3l0.91,2.07c-0.82,0.66-1.8,1.18-2.93,1.58 c-1.14,0.4-2.3,0.6-3.49,0.6c-0.94,0-1.82-0.13-2.65-0.4c-0.83-0.27-1.56-0.68-2.2-1.25c-0.63-0.56-1.14-1.28-1.51-2.16 c-0.38-0.88-0.56-1.93-0.56-3.14v-8.71h-4.18V282.12z" style="fill: #ffffff;"/><path class="st0" d="M617.78,283.49c1.01-0.58,2.14-1.01,3.41-1.26c1.26-0.26,2.51-0.39,3.72-0.39c1.19,0,2.17,0.19,2.93,0.56 c0.76,0.38,1.36,0.86,1.79,1.46c0.43,0.6,0.72,1.28,0.88,2.04c0.15,0.76,0.23,1.53,0.23,2.3c0,0.89-0.02,1.84-0.07,2.84 c-0.05,1.01-0.08,2.01-0.11,3.02c0,1.17,0.07,2.28,0.21,3.34h2.35v2.28h-4.64l-0.31-2.63H628c-0.14,0.21-0.35,0.48-0.63,0.81 c-0.28,0.33-0.65,0.65-1.11,0.97c-0.46,0.32-1.02,0.59-1.67,0.83c-0.66,0.23-1.43,0.35-2.33,0.35c-1.74,0-3.11-0.44-4.12-1.34 c-1.01-0.89-1.51-2.11-1.51-3.65c0-1.19,0.26-2.19,0.79-2.99c0.53-0.8,1.29-1.41,2.27-1.83c0.99-0.42,2.18-0.67,3.58-0.74 c1.4-0.07,2.97,0.02,4.7,0.28c0.12-1.08,0.13-1.97,0.05-2.69c-0.08-0.71-0.27-1.28-0.56-1.7c-0.29-0.42-0.71-0.72-1.23-0.9 c-0.53-0.17-1.18-0.26-1.96-0.26c-1.06,0-2.07,0.15-3.03,0.44c-0.96,0.29-1.82,0.59-2.57,0.9L617.78,283.49z M622.98,297.65 c0.66,0,1.26-0.11,1.83-0.32c0.56-0.21,1.05-0.48,1.47-0.81c0.42-0.33,0.77-0.68,1.05-1.07c0.28-0.39,0.49-0.75,0.63-1.11v-2.46 c-1.22-0.21-2.34-0.32-3.37-0.32c-1.03,0-1.92,0.11-2.67,0.33c-0.75,0.22-1.34,0.57-1.76,1.04c-0.42,0.47-0.63,1.08-0.63,1.83 c0,0.77,0.26,1.45,0.79,2.02C620.85,297.36,621.74,297.65,622.98,297.65z" style="fill: #ffffff;"/></g><g><path class="st0" d="M456.66,318.8c0-0.21-0.01-0.49-0.02-0.83c-0.01-0.34-0.03-0.69-0.05-1.05c-0.02-0.36-0.05-0.72-0.09-1.07 c-0.04-0.35-0.08-0.66-0.12-0.91h-2.35v-2.28h4.67l0.35,2.46h0.18c0.63-0.82,1.43-1.5,2.41-2.05c0.97-0.55,2.16-0.83,3.56-0.83 c2.51,0,4.39,0.69,5.65,2.07c1.26,1.38,1.9,3.64,1.9,6.78c0,1.47-0.22,2.8-0.65,3.99c-0.43,1.18-1.05,2.18-1.84,3 c-0.8,0.82-1.76,1.45-2.88,1.9c-1.12,0.44-2.37,0.67-3.72,0.67c-0.49,0-0.93-0.02-1.32-0.05c-0.39-0.04-0.74-0.08-1.05-0.14 c-0.32-0.06-0.63-0.13-0.93-0.23c-0.3-0.09-0.63-0.21-0.98-0.35v7.38h-2.71V318.8z M464.74,314.84c-0.7,0-1.36,0.13-1.98,0.39 c-0.62,0.26-1.17,0.6-1.65,1.02c-0.48,0.42-0.87,0.89-1.18,1.4c-0.3,0.51-0.49,1.03-0.56,1.54v7.99 c0.51,0.35,1.09,0.63,1.74,0.82c0.64,0.2,1.49,0.3,2.55,0.3c1.87,0,3.37-0.61,4.5-1.84c1.12-1.23,1.69-3.02,1.69-5.38 c0-1.99-0.39-3.52-1.18-4.61C467.87,315.38,466.57,314.84,464.74,314.84z" style="fill: #ffffff;"/><path class="st0" d="M477.62,314.03c1.01-0.58,2.14-1.01,3.41-1.26c1.26-0.26,2.51-0.39,3.72-0.39c1.19,0,2.17,0.19,2.93,0.56 c0.76,0.38,1.36,0.86,1.79,1.46c0.43,0.6,0.72,1.28,0.88,2.04c0.15,0.76,0.23,1.53,0.23,2.3c0,0.89-0.02,1.84-0.07,2.84 c-0.05,1.01-0.08,2.01-0.11,3.02c0,1.17,0.07,2.28,0.21,3.34h2.35v2.28h-4.64l-0.31-2.63h-0.18c-0.14,0.21-0.35,0.48-0.63,0.81 c-0.28,0.33-0.65,0.65-1.11,0.97c-0.46,0.32-1.02,0.59-1.67,0.83c-0.66,0.23-1.43,0.35-2.33,0.35c-1.74,0-3.11-0.44-4.12-1.34 c-1.01-0.89-1.51-2.11-1.51-3.65c0-1.19,0.26-2.19,0.79-2.99c0.53-0.8,1.29-1.41,2.27-1.83c0.99-0.42,2.18-0.67,3.58-0.74 c1.4-0.07,2.97,0.02,4.7,0.28c0.12-1.08,0.13-1.97,0.05-2.69c-0.08-0.71-0.27-1.28-0.56-1.7c-0.29-0.42-0.7-0.72-1.23-0.9 c-0.53-0.17-1.18-0.26-1.96-0.26c-1.06,0-2.07,0.15-3.03,0.44c-0.96,0.29-1.82,0.59-2.57,0.9L477.62,314.03z M482.82,328.18 c0.66,0,1.26-0.11,1.83-0.32c0.56-0.21,1.05-0.48,1.47-0.81c0.42-0.33,0.77-0.68,1.05-1.07c0.28-0.39,0.49-0.75,0.63-1.11v-2.46 c-1.22-0.21-2.34-0.32-3.37-0.32c-1.03,0-1.92,0.11-2.67,0.33c-0.75,0.22-1.33,0.57-1.76,1.04c-0.42,0.47-0.63,1.08-0.63,1.83 c0,0.77,0.26,1.45,0.79,2.02S481.58,328.18,482.82,328.18z" style="fill: #ffffff;"/><path class="st0" d="M495.97,305.63h5.87v18.69c0,1.43,0.24,2.44,0.72,3.02c0.48,0.59,1.19,0.88,2.13,0.88 c0.66,0,1.28-0.12,1.88-0.35c0.6-0.23,1.26-0.63,1.98-1.19l1.26,1.93c-0.38,0.33-0.79,0.62-1.23,0.88 c-0.45,0.26-0.9,0.47-1.38,0.65c-0.47,0.18-0.94,0.31-1.41,0.4c-0.47,0.09-0.91,0.14-1.3,0.14c-0.87,0-1.64-0.11-2.33-0.33 c-0.68-0.22-1.25-0.58-1.71-1.07c-0.46-0.49-0.8-1.14-1.04-1.95c-0.23-0.81-0.35-1.81-0.35-3v-16.33h-3.09V305.63z" style="fill: #ffffff;"/><path class="st0" d="M514.76,330.22v-2.35h6.11v-12.86h-6.11v-2.35h8.89v15.21h5.97v2.35H514.76z M516.41,307.64h10.4v2.18h-10.4 V307.64z" style="fill: #ffffff;"/><path class="st0" d="M549.07,331.1c0,1.1-0.21,2.07-0.63,2.9c-0.42,0.83-1,1.51-1.74,2.05c-0.74,0.54-1.6,0.94-2.58,1.21 c-0.98,0.27-2.05,0.4-3.2,0.4c-1.38,0-2.59-0.14-3.62-0.42c-1.03-0.28-1.92-0.64-2.67-1.09l1.33-2.49 c0.21,0.19,0.48,0.37,0.82,0.54c0.34,0.18,0.73,0.34,1.17,0.49c0.44,0.15,0.92,0.28,1.42,0.37c0.5,0.09,1,0.14,1.49,0.14 c1.03,0,1.89-0.09,2.57-0.28c0.69-0.19,1.24-0.48,1.66-0.88c0.42-0.4,0.72-0.91,0.91-1.55c0.19-0.63,0.28-1.41,0.28-2.32v-1.97 h-0.14c-0.54,0.77-1.23,1.37-2.07,1.79c-0.84,0.42-1.93,0.63-3.26,0.63c-2.66,0-4.62-0.74-5.87-2.23 c-1.25-1.49-1.87-3.8-1.87-6.94c0-3,0.8-5.26,2.39-6.8c1.59-1.53,3.96-2.3,7.09-2.3c1.45,0,2.69,0.1,3.71,0.3 c1.02,0.2,1.95,0.45,2.79,0.75V331.1z M541.24,328.29c1.42,0,2.53-0.37,3.35-1.11c0.81-0.74,1.38-1.87,1.71-3.39v-8.32 c-1.02-0.49-2.45-0.74-4.29-0.74c-1.86,0-3.33,0.55-4.39,1.65c-1.07,1.1-1.61,2.79-1.61,5.06c0,1.01,0.09,1.93,0.28,2.76 c0.19,0.83,0.48,1.55,0.89,2.16c0.41,0.61,0.94,1.08,1.61,1.42C539.45,328.12,540.27,328.29,541.24,328.29z" style="fill: #ffffff;"/><path class="st0" d="M566.18,325.48c0-0.75-0.29-1.33-0.88-1.74c-0.58-0.41-1.31-0.74-2.17-0.98c-0.86-0.25-1.8-0.47-2.82-0.68 c-1.02-0.21-1.96-0.49-2.82-0.84c-0.86-0.35-1.59-0.83-2.17-1.42c-0.58-0.6-0.88-1.43-0.88-2.51c0-0.89,0.19-1.65,0.58-2.28 c0.39-0.63,0.9-1.15,1.53-1.56c0.63-0.41,1.37-0.71,2.21-0.91c0.84-0.2,1.72-0.3,2.63-0.3c1.64,0,3.05,0.2,4.23,0.61 c1.18,0.41,2.13,0.84,2.83,1.28l-1.12,2.21c-0.77-0.42-1.6-0.83-2.5-1.21c-0.9-0.39-2.03-0.58-3.38-0.58 c-0.51,0-1.02,0.05-1.52,0.16c-0.5,0.11-0.96,0.26-1.37,0.47c-0.41,0.21-0.74,0.49-0.98,0.83c-0.25,0.34-0.37,0.75-0.37,1.25 c0,0.61,0.29,1.08,0.88,1.4c0.58,0.33,1.31,0.6,2.17,0.83c0.86,0.22,1.8,0.43,2.82,0.63s1.96,0.49,2.82,0.86 c0.86,0.38,1.59,0.88,2.17,1.51c0.58,0.63,0.88,1.49,0.88,2.56c0,1.62-0.64,2.95-1.92,4c-1.28,1.05-3.19,1.58-5.74,1.58 c-0.77,0-1.53-0.07-2.28-0.21c-0.75-0.14-1.45-0.33-2.11-0.56c-0.66-0.23-1.25-0.5-1.79-0.79c-0.54-0.29-0.98-0.59-1.34-0.9 l1.4-2.28c0.28,0.28,0.65,0.57,1.12,0.86c0.47,0.29,0.98,0.56,1.54,0.79c0.56,0.23,1.16,0.42,1.8,0.56 c0.64,0.14,1.29,0.21,1.94,0.21c0.63,0,1.22-0.05,1.77-0.16c0.55-0.11,1.03-0.27,1.45-0.49c0.42-0.22,0.75-0.51,1-0.88 C566.06,326.43,566.18,325.99,566.18,325.48z" style="fill: #ffffff;"/></g></g></svg>