<?xml version="1.0" encoding="utf-8"?>
<svg xmlns="http://www.w3.org/2000/svg" viewBox="0 0 819 100" xmlns:bx="https://boxy-svg.com" width="819px" height="100px"><defs><bx:export><bx:file format="svg"/></bx:export><bx:grid x="0" y="0" width="56.247" height="56.247"/></defs><path d="M 345.56 68.82 L 358 68.82 L 358 97.4 L 311.87 97.4 L 311.87 27.2 L 325.61 27.2 L 325.61 85.16 L 345.57 85.16 L 345.57 68.82 L 345.56 68.82 Z" class="st0" style="fill: rgb(22, 36, 129);"/><path d="M 407.56 81.86 L 386.6 81.86 L 381.79 97.4 L 368.05 97.4 L 390.71 27.2 L 404.45 27.2 L 427.01 97.4 L 412.57 97.4 L 407.56 81.86 Z M 389.81 70.83 L 404.85 70.83 L 397.73 47.37 L 396.83 47.37 L 389.81 70.83 Z" class="st0" style="fill: rgb(22, 36, 129);"/><path d="M 492.94 73.03 L 503.97 73.03 L 503.97 82.96 C 504.17 83.03 504.37 83.1 504.57 83.16 C 506.11 83.83 507.79 84.38 509.63 84.81 C 511.47 85.25 513.42 85.46 515.5 85.46 C 519.24 85.46 522.15 84.71 524.22 83.2 C 526.29 81.7 527.33 79.67 527.33 77.13 C 527.33 74.86 526.48 73.02 524.77 71.61 C 523.07 70.21 520.96 68.97 518.45 67.9 C 515.94 66.83 513.2 65.76 510.23 64.69 C 507.26 63.62 504.51 62.27 502.01 60.63 C 499.5 58.99 497.39 56.94 495.69 54.46 C 493.98 51.99 493.13 48.78 493.13 44.83 C 493.13 41.82 493.72 39.06 494.89 36.56 C 496.06 34.05 497.7 31.9 499.8 30.09 C 501.91 28.29 504.43 26.88 507.37 25.88 C 510.31 24.88 513.59 24.38 517.2 24.38 C 521.27 24.38 525.29 24.75 529.23 25.48 C 533.18 26.22 536.31 27.22 538.66 28.49 L 538.66 48.85 L 527.63 48.85 L 527.63 37.72 C 527.43 37.72 527.23 37.69 527.02 37.62 C 525.55 37.22 523.96 36.9 522.26 36.67 C 520.55 36.44 518.87 36.32 517.2 36.32 C 513.99 36.32 511.46 36.96 509.63 38.23 C 507.79 39.5 506.87 41.21 506.87 43.34 C 506.87 45.55 507.73 47.35 509.43 48.76 C 511.14 50.16 513.24 51.43 515.75 52.57 C 518.26 53.71 521 54.84 523.97 55.98 C 526.94 57.12 529.69 58.5 532.19 60.14 C 534.7 61.78 536.81 63.84 538.51 66.31 C 540.22 68.79 541.07 71.89 541.07 75.64 C 541.07 79.25 540.4 82.41 539.06 85.12 C 537.72 87.83 535.85 90.1 533.44 91.94 C 531.04 93.78 528.19 95.15 524.91 96.05 C 521.63 96.95 518.09 97.4 514.28 97.4 C 511.74 97.4 509.38 97.2 507.21 96.8 C 505.04 96.4 503.03 95.9 501.19 95.3 C 499.35 94.7 497.73 94.06 496.33 93.39 C 494.93 92.72 493.79 92.16 492.92 91.69 L 492.92 73.03 L 492.94 73.03 Z" class="st0" style="fill: rgb(22, 36, 129);"/><path d="M 605.702 68.12 L 598.582 68.12 L 598.582 97.4 L 584.842 97.4 L 584.842 27.2 L 598.582 27.2 L 598.582 55.88 L 605.702 55.88 L 621.752 27.2 L 637.392 27.2 L 617.632 61.09 L 639.892 97.39 L 622.952 97.39 L 605.702 68.12 Z" class="st0" style="fill: rgb(22, 36, 129);"/><path d="M 707.952 26.1 C 708.552 26.03 709.612 25.93 711.112 25.8 C 712.612 25.67 714.322 25.55 716.222 25.45 C 718.132 25.35 720.102 25.27 722.142 25.2 C 724.182 25.14 726.002 25.1 727.602 25.1 C 733.822 25.1 738.972 26 743.042 27.81 C 747.122 29.62 750.342 32.11 752.722 35.28 C 755.092 38.46 756.752 42.2 757.682 46.51 C 758.622 50.82 759.082 55.52 759.082 60.6 C 759.082 65.21 758.612 69.72 757.682 74.14 C 756.742 78.55 755.062 82.48 752.622 85.92 C 750.182 89.36 746.802 92.14 742.492 94.24 C 738.182 96.35 732.642 97.4 725.892 97.4 C 724.822 97.4 723.452 97.37 721.782 97.3 C 720.112 97.23 718.402 97.15 716.672 97.05 C 714.932 96.95 713.262 96.85 711.662 96.75 C 710.062 96.65 708.822 96.53 707.952 96.4 L 707.952 26.1 Z M 728.102 37.33 C 726.832 37.33 725.592 37.38 724.392 37.48 C 723.192 37.58 722.282 37.67 721.682 37.73 L 721.682 84.76 C 721.952 84.83 722.352 84.88 722.882 84.91 C 723.412 84.94 723.972 84.98 724.542 85.01 C 725.112 85.05 725.662 85.08 726.192 85.11 C 726.722 85.14 727.162 85.16 727.492 85.16 C 731.372 85.16 734.462 84.44 736.772 83 C 739.082 81.56 740.802 79.68 741.942 77.33 C 743.082 74.99 743.812 72.35 744.152 69.41 C 744.482 66.47 744.652 63.53 744.652 60.59 C 744.652 58.05 744.502 55.41 744.202 52.67 C 743.902 49.93 743.202 47.42 742.092 45.15 C 740.992 42.88 739.332 41 737.132 39.53 C 734.922 38.07 731.912 37.33 728.102 37.33 Z" class="st0" style="fill: rgb(22, 36, 129);"/><path d="M 768.322 73.03 L 779.352 73.03 L 779.352 82.96 C 779.552 83.03 779.752 83.1 779.952 83.16 C 781.492 83.83 783.172 84.38 785.012 84.81 C 786.852 85.25 788.812 85.46 790.882 85.46 C 794.622 85.46 797.532 84.71 799.612 83.2 C 801.682 81.7 802.722 79.67 802.722 77.13 C 802.722 74.86 801.872 73.02 800.172 71.61 C 798.462 70.21 796.362 68.97 793.852 67.9 C 791.342 66.83 788.602 65.76 785.632 64.69 C 782.652 63.62 779.912 62.27 777.402 60.63 C 774.892 58.99 772.792 56.94 771.082 54.46 C 769.372 51.99 768.522 48.78 768.522 44.83 C 768.522 41.82 769.112 39.06 770.282 36.56 C 771.452 34.05 773.092 31.9 775.202 30.09 C 777.302 28.29 779.832 26.88 782.772 25.88 C 785.712 24.88 788.992 24.38 792.602 24.38 C 796.682 24.38 800.692 24.75 804.642 25.48 C 808.582 26.22 811.722 27.22 814.062 28.49 L 814.062 48.85 L 803.032 48.85 L 803.032 37.72 C 802.832 37.72 802.632 37.69 802.432 37.62 C 800.962 37.22 799.372 36.9 797.672 36.67 C 795.972 36.44 794.282 36.32 792.612 36.32 C 789.402 36.32 786.882 36.96 785.042 38.23 C 783.202 39.5 782.282 41.21 782.282 43.34 C 782.282 45.55 783.132 47.35 784.842 48.76 C 786.542 50.16 788.652 51.43 791.162 52.57 C 793.672 53.71 796.402 54.84 799.382 55.98 C 802.352 57.12 805.102 58.5 807.602 60.14 C 810.112 61.78 812.212 63.84 813.922 66.31 C 815.622 68.79 816.482 71.89 816.482 75.64 C 816.482 79.25 815.812 82.41 814.472 85.12 C 813.132 87.83 811.262 90.1 808.852 91.94 C 806.442 93.78 803.602 95.15 800.332 96.05 C 797.052 96.95 793.512 97.4 789.702 97.4 C 787.162 97.4 784.802 97.2 782.632 96.8 C 780.462 96.4 778.452 95.9 776.612 95.3 C 774.772 94.7 773.152 94.06 771.752 93.39 C 770.352 92.72 769.212 92.16 768.342 91.69 L 768.342 73.03 L 768.322 73.03 Z" class="st0" style="fill: rgb(22, 36, 129);"/><path d="M 483.52 85.4 L 437.49 85.4 L 437.49 71.16 L 452.83 71.16 L 452.83 32.19 L 440.89 41.33 L 432.95 30.74 L 457.51 12 L 468.48 12 L 468.48 71.17 L 483.52 71.17 L 483.52 85.4 Z M 440.7 82.19 L 480.31 82.19 L 480.31 74.37 L 465.27 74.37 L 465.27 15.2 L 458.59 15.2 L 437.42 31.35 L 441.51 36.8 L 456.04 25.68 L 456.04 74.36 L 440.7 74.36 L 440.7 82.19 Z" class="st0" style="fill: rgb(22, 36, 129);"/><path d="M 670.512 85.4 C 661.482 85.4 654.472 82.02 649.682 75.36 C 645.002 68.86 642.632 59.38 642.632 47.2 C 642.632 41 643.292 35.47 644.602 30.77 C 645.932 26.01 647.832 21.99 650.262 18.84 C 652.722 15.64 655.712 13.2 659.162 11.59 C 662.582 9.99 666.442 9.18 670.612 9.18 C 679.552 9.18 686.552 12.38 691.412 18.68 C 696.172 24.86 698.592 34.45 698.592 47.19 C 698.592 53.46 697.932 59.02 696.622 63.72 C 695.302 68.47 693.392 72.5 690.972 75.69 C 688.502 78.93 685.492 81.39 682.012 82.99 C 678.552 84.59 674.682 85.4 670.512 85.4 Z M 670.612 12.4 C 666.912 12.4 663.512 13.11 660.522 14.5 C 657.552 15.89 654.952 18.01 652.812 20.79 C 650.632 23.62 648.912 27.26 647.702 31.62 C 646.472 36.04 645.852 41.27 645.852 47.18 C 645.852 58.68 648.022 67.53 652.292 73.47 C 656.512 79.33 662.472 82.18 670.522 82.18 C 674.232 82.18 677.642 81.47 680.672 80.07 C 683.672 78.69 686.282 76.55 688.422 73.74 C 690.602 70.87 692.322 67.21 693.542 62.85 C 694.772 58.43 695.392 53.16 695.392 47.19 C 695.392 35.18 693.202 26.25 688.882 20.64 C 684.592 15.1 678.612 12.4 670.612 12.4 Z M 670.622 74.37 C 664.442 74.37 660.152 70.93 657.862 64.15 L 657.532 63.16 L 685.122 37.84 L 685.352 41.16 C 685.422 42.12 685.472 43.09 685.502 44.08 C 685.532 45.07 685.552 46.1 685.552 47.19 C 685.552 56.45 684.342 63.07 681.862 67.44 C 679.242 72.04 675.462 74.37 670.622 74.37 Z M 661.252 64.1 C 663.122 68.85 666.192 71.16 670.612 71.16 C 674.262 71.16 677.032 69.42 679.062 65.85 C 681.232 62.04 682.332 55.76 682.332 47.19 C 682.332 46.35 682.322 45.55 682.302 44.77 L 661.252 64.1 Z M 656.112 56.25 L 655.872 52.92 C 655.802 51.96 655.752 51.03 655.722 50.11 C 655.692 49.19 655.672 48.22 655.672 47.19 C 655.672 38.14 656.862 31.6 659.302 27.21 C 661.882 22.57 665.652 20.22 670.502 20.22 C 676.742 20.22 681.032 23.49 683.262 29.92 L 683.602 30.91 L 656.112 56.25 Z M 670.502 23.43 C 666.852 23.43 664.102 25.18 662.102 28.77 C 659.962 32.62 658.872 38.82 658.872 47.19 C 658.872 47.92 658.882 48.63 658.902 49.3 L 679.852 29.99 C 678.042 25.58 674.972 23.43 670.502 23.43 Z" class="st0" style="fill: rgb(22, 36, 129);"/><path d="M 87.18 85.4 C 78.15 85.4 71.14 82.02 66.35 75.36 C 61.67 68.86 59.3 59.38 59.3 47.2 C 59.3 41 59.96 35.47 61.27 30.77 C 62.6 26.01 64.5 22 66.93 18.84 C 69.39 15.64 72.39 13.2 75.83 11.6 C 79.25 10 83.1 9.19 87.28 9.19 C 96.22 9.19 103.22 12.39 108.08 18.69 C 112.84 24.87 115.26 34.46 115.26 47.2 C 115.26 53.47 114.6 59.03 113.29 63.73 C 111.97 68.49 110.06 72.51 107.64 75.7 C 105.17 78.94 102.16 81.4 98.68 83 C 95.22 84.59 91.35 85.4 87.18 85.4 Z M 87.28 12.39 C 83.58 12.39 80.18 13.1 77.19 14.5 C 74.22 15.89 71.62 18 69.48 20.79 C 67.3 23.62 65.58 27.26 64.37 31.62 C 63.14 36.04 62.52 41.27 62.52 47.18 C 62.52 58.68 64.69 67.53 68.96 73.47 C 73.18 79.33 79.14 82.18 87.19 82.18 C 90.89 82.18 94.31 81.47 97.34 80.07 C 100.34 78.69 102.94 76.56 105.09 73.74 C 107.27 70.88 108.99 67.21 110.21 62.85 C 111.44 58.43 112.06 53.16 112.06 47.18 C 112.06 35.17 109.87 26.24 105.55 20.63 C 101.26 15.09 95.28 12.39 87.28 12.39 Z M 87.29 74.37 C 81.11 74.37 76.82 70.93 74.53 64.15 L 74.2 63.16 L 101.79 37.84 L 102.02 41.16 C 102.09 42.12 102.14 43.09 102.17 44.08 C 102.2 45.07 102.22 46.11 102.22 47.19 C 102.22 56.45 101.01 63.08 98.53 67.44 C 95.91 72.03 92.13 74.37 87.29 74.37 Z M 77.92 64.09 C 79.79 68.84 82.86 71.15 87.28 71.15 C 90.94 71.15 93.7 69.41 95.73 65.84 C 97.9 62.03 99 55.75 99 47.18 C 99 46.34 98.99 45.54 98.97 44.76 L 77.92 64.09 Z M 72.78 56.24 L 72.54 52.91 C 72.47 51.96 72.42 51.02 72.39 50.1 C 72.36 49.18 72.34 48.21 72.34 47.18 C 72.34 38.13 73.53 31.59 75.97 27.2 C 78.55 22.56 82.32 20.21 87.17 20.21 C 93.41 20.21 97.7 23.47 99.93 29.91 L 100.27 30.9 L 72.78 56.24 Z M 87.17 23.42 C 83.52 23.42 80.77 25.17 78.77 28.76 C 76.63 32.61 75.54 38.81 75.54 47.18 C 75.54 47.91 75.55 48.62 75.57 49.29 L 96.53 29.98 C 94.71 25.57 91.64 23.42 87.17 23.42 Z" class="st0" style="fill: rgb(22, 36, 129);"/><path d="M 2 73.04 L 13.03 73.04 L 13.03 82.97 C 13.23 83.04 13.43 83.11 13.63 83.17 C 15.17 83.84 16.85 84.39 18.69 84.82 C 20.53 85.26 22.48 85.47 24.56 85.47 C 28.3 85.47 31.21 84.72 33.28 83.21 C 35.35 81.71 36.39 79.68 36.39 77.14 C 36.39 74.87 35.54 73.03 33.83 71.62 C 32.12 70.22 30.02 68.98 27.51 67.91 C 25 66.84 22.26 65.77 19.29 64.7 C 16.31 63.63 13.57 62.28 11.07 60.64 C 8.56 59 6.46 56.95 4.75 54.47 C 3.04 52 2.19 48.79 2.19 44.84 C 2.19 41.83 2.78 39.07 3.95 36.57 C 5.12 34.06 6.76 31.91 8.86 30.1 C 10.97 28.29 13.49 26.89 16.43 25.89 C 19.37 24.89 22.65 24.39 26.26 24.39 C 30.34 24.39 34.35 24.76 38.29 25.49 C 42.23 26.23 45.38 27.23 47.72 28.5 L 47.72 48.86 L 36.69 48.86 L 36.69 37.73 C 36.49 37.73 36.29 37.7 36.09 37.63 C 34.62 37.23 33.03 36.91 31.33 36.68 C 29.63 36.45 27.94 36.33 26.27 36.33 C 23.06 36.33 20.54 36.97 18.7 38.24 C 16.86 39.51 15.94 41.22 15.94 43.35 C 15.94 45.56 16.79 47.36 18.5 48.76 C 20.2 50.16 22.31 51.43 24.82 52.57 C 27.33 53.71 30.07 54.84 33.04 55.98 C 36.01 57.12 38.76 58.5 41.26 60.14 C 43.77 61.78 45.87 63.83 47.58 66.31 C 49.28 68.78 50.14 71.89 50.14 75.64 C 50.14 79.25 49.47 82.41 48.13 85.12 C 46.79 87.83 44.92 90.1 42.51 91.94 C 40.1 93.78 37.26 95.15 33.99 96.05 C 30.71 96.95 27.17 97.4 23.36 97.4 C 20.82 97.4 18.46 97.2 16.29 96.8 C 14.12 96.4 12.11 95.9 10.27 95.3 C 8.43 94.7 6.81 94.06 5.41 93.39 C 4.01 92.72 2.87 92.16 2 91.69 L 2 73.04 Z" class="st0" style="fill: rgb(22, 36, 129);"/><path d="M 162.45 72.43 L 173.48 72.43 L 173.48 92.49 C 171.34 94.03 168.62 95.23 165.31 96.1 C 162 96.97 158.61 97.4 155.13 97.4 C 150.72 97.4 146.52 96.75 142.54 95.45 C 138.56 94.14 135.07 92.04 132.06 89.13 C 129.05 86.22 126.64 82.44 124.84 77.8 C 123.04 73.15 122.13 67.52 122.13 60.9 C 122.13 54.02 123.15 48.25 125.19 43.6 C 127.23 38.95 129.85 35.21 133.06 32.37 C 136.27 29.53 139.85 27.49 143.79 26.25 C 147.73 25.01 151.61 24.4 155.42 24.4 C 159.43 24.4 162.82 24.73 165.6 25.4 C 168.37 26.07 170.66 26.84 172.47 27.71 L 172.47 48.57 L 161.44 48.57 L 161.44 37.13 C 159.37 36.8 157.23 36.63 155.02 36.63 C 152.41 36.63 149.99 37.12 147.75 38.08 C 145.51 39.05 143.55 40.54 141.88 42.54 C 140.21 44.55 138.9 47.07 137.97 50.11 C 137.03 53.15 136.57 56.75 136.57 60.89 C 136.57 64.5 137 67.79 137.87 70.77 C 138.74 73.75 140.01 76.3 141.68 78.44 C 143.35 80.58 145.39 82.24 147.8 83.4 C 150.21 84.57 152.95 85.16 156.02 85.16 C 158.23 85.16 160.37 84.96 162.44 84.56 L 162.44 72.43 L 162.45 72.43 Z" class="st0" style="fill: rgb(22, 36, 129);"/><path d="M 184.94 85.17 L 202.69 85.17 L 202.69 39.44 L 184.94 39.44 L 184.94 27.21 L 234.28 27.21 L 234.28 39.44 L 216.43 39.44 L 216.43 85.17 L 234.28 85.17 L 234.28 97.4 L 184.94 97.4 L 184.94 85.17 Z" class="st0" style="fill: rgb(22, 36, 129);"/><rect height="12.21" width="43.34" class="st0" y="27.19" x="251.719" style="fill: rgb(22, 36, 129);"/><path d="M 285.21 42.44 L 261.65 42.44 L 243.91 97.4 L 257.65 97.4 L 262.46 81.86 L 283.42 81.86 L 288.43 97.4 L 302.87 97.4 L 285.21 42.44 Z M 265.67 70.83 L 272.69 47.36 L 273.59 47.36 L 280.71 70.83 L 265.67 70.83 Z" class="st0" style="fill: rgb(22, 36, 129);"/></svg>